<svg width="41" height="41" viewBox="0 0 41 41" fill="none" xmlns="http://www.w3.org/2000/svg">
<path d="M21.513 39.7323L21.4942 39.7357L21.3729 39.7955L21.3388 39.8023L21.3149 39.7955L21.1936 39.7357C21.1753 39.73 21.1617 39.7329 21.1526 39.7442L21.1457 39.7613L21.1167 40.4925L21.1252 40.5267L21.1423 40.5489L21.32 40.6753L21.3456 40.6821L21.3661 40.6753L21.5438 40.5489L21.5643 40.5215L21.5711 40.4925L21.5421 39.763C21.5375 39.7448 21.5278 39.7346 21.513 39.7323ZM21.9657 39.5393L21.9435 39.5427L21.6275 39.7015L21.6104 39.7186L21.6053 39.7374L21.636 40.472L21.6446 40.4925L21.6582 40.5045L22.0016 40.6633C22.0233 40.669 22.0398 40.6645 22.0512 40.6497L22.058 40.6257L21.9999 39.5768C21.9942 39.5563 21.9828 39.5438 21.9657 39.5393ZM20.7443 39.5427C20.7368 39.5381 20.7278 39.5366 20.7192 39.5385C20.7106 39.5404 20.703 39.5456 20.6982 39.5529L20.6879 39.5768L20.6298 40.6257C20.631 40.6462 20.6406 40.6599 20.6589 40.6668L20.6845 40.6633L21.0279 40.5045L21.0449 40.4908L21.0518 40.472L21.0808 39.7374L21.0757 39.7169L21.0586 39.6998L20.7443 39.5427Z" fill="white"/>
<path d="M29.0417 6.83319C30.9311 6.83319 32.3814 8.27332 33.456 9.82277L33.8199 10.3711L34.153 10.9178C34.2589 11.0966 34.3603 11.272 34.4571 11.444C35.8015 13.8476 36.9717 16.9858 37.7456 20.0864C38.5144 23.1631 38.9397 26.3765 38.6681 28.9031C38.3948 31.44 37.0879 34.1665 34.1667 34.1665C31.5461 34.1665 29.4807 32.7657 27.8031 31.3973L25.9069 29.8068C24.3301 28.5153 22.6047 27.3332 20.5 27.3332C18.3953 27.3332 16.6682 28.5153 15.0948 29.8068L13.1986 31.3956C11.5176 32.7657 9.4522 34.1665 6.83332 34.1665C3.91036 34.1665 2.60349 31.44 2.33186 28.9031C2.06195 26.3748 2.48561 23.1631 3.25436 20.0864C4.02824 16.9858 5.19845 13.8476 6.5429 11.444L6.84699 10.9161L7.18011 10.3711L7.54399 9.82277C8.61853 8.27332 10.0689 6.83319 11.9583 6.83319C12.8296 6.83319 13.6957 7.04502 14.5464 7.29444L15.5595 7.60536C15.7269 7.65661 15.8932 7.70558 16.0583 7.75227C17.536 8.17594 19.0479 8.54152 20.5 8.54152C21.9521 8.54152 23.4639 8.17594 24.9417 7.75227L26.4535 7.29615C27.3043 7.04502 28.1704 6.83319 29.0417 6.83319ZM14.5208 13.6665C13.3881 13.6665 12.3018 14.1165 11.5009 14.9174C10.7 15.7184 10.25 16.8047 10.25 17.9374C10.25 19.07 10.7 20.1564 11.5009 20.9573C12.3018 21.7582 13.3881 22.2082 14.5208 22.2082C15.6535 22.2082 16.7398 21.7582 17.5408 20.9573C18.3417 20.1564 18.7917 19.07 18.7917 17.9374C18.7917 16.8047 18.3417 15.7184 17.5408 14.9174C16.7398 14.1165 15.6535 13.6665 14.5208 13.6665ZM26.4792 13.6665C26.0261 13.6665 25.5916 13.8465 25.2712 14.1669C24.9508 14.4873 24.7708 14.9218 24.7708 15.3749V16.229H23.9167C23.4636 16.229 23.0291 16.409 22.7087 16.7294C22.3883 17.0498 22.2083 17.4843 22.2083 17.9374C22.2083 18.3904 22.3883 18.825 22.7087 19.1453C23.0291 19.4657 23.4636 19.6457 23.9167 19.6457H24.7708V20.4999C24.7708 20.9529 24.9508 21.3875 25.2712 21.7078C25.5916 22.0282 26.0261 22.2082 26.4792 22.2082C26.9322 22.2082 27.3668 22.0282 27.6871 21.7078C28.0075 21.3875 28.1875 20.9529 28.1875 20.4999V19.6457H29.0417C29.4947 19.6457 29.9293 19.4657 30.2496 19.1453C30.57 18.825 30.75 18.3904 30.75 17.9374C30.75 17.4843 30.57 17.0498 30.2496 16.7294C29.9293 16.409 29.4947 16.229 29.0417 16.229H28.1875V15.3749C28.1875 14.9218 28.0075 14.4873 27.6871 14.1669C27.3668 13.8465 26.9322 13.6665 26.4792 13.6665ZM14.5208 17.0832C14.7474 17.0832 14.9646 17.1732 15.1248 17.3334C15.285 17.4936 15.375 17.7108 15.375 17.9374C15.375 18.1639 15.285 18.3812 15.1248 18.5413C14.9646 18.7015 14.7474 18.7915 14.5208 18.7915C14.2943 18.7915 14.077 18.7015 13.9168 18.5413C13.7566 18.3812 13.6667 18.1639 13.6667 17.9374C13.6667 17.7108 13.7566 17.4936 13.9168 17.3334C14.077 17.1732 14.2943 17.0832 14.5208 17.0832Z" fill="white"/>
</svg>
