<svg width="41" height="41" viewBox="0 0 41 41" fill="none" xmlns="http://www.w3.org/2000/svg">
<path d="M27.3333 5.55194H13.6666C12.0266 5.55194 10.6771 6.90152 10.6771 8.54152V32.4582C10.6771 34.0982 12.0266 35.4478 13.6666 35.4478H27.3333C28.9733 35.4478 30.3229 34.0982 30.3229 32.4582V8.54152C30.3229 6.90152 28.9733 5.55194 27.3333 5.55194ZM27.7604 32.4582C27.7604 32.6974 27.5725 32.8853 27.3333 32.8853H13.6666C13.4275 32.8853 13.2396 32.6974 13.2396 32.4582V8.54152C13.2396 8.30236 13.4275 8.11444 13.6666 8.11444H27.3333C27.5725 8.11444 27.7604 8.30236 27.7604 8.54152V32.4582ZM22.2083 27.3332C22.2083 28.2728 21.4396 29.0415 20.5 29.0415C19.5604 29.0415 18.7916 28.2728 18.7916 27.3332C18.7916 26.3936 19.5604 25.6249 20.5 25.6249C21.4396 25.6249 22.2083 26.3936 22.2083 27.3332Z" fill="white"/>
</svg>
