<svg width="41" height="41" viewBox="0 0 41 41" fill="none" xmlns="http://www.w3.org/2000/svg">
<path d="M3.41663 17.0832C3.41663 16.177 3.7766 15.308 4.41734 14.6672C5.05809 14.0265 5.92714 13.6665 6.83329 13.6665H34.1666C35.0728 13.6665 35.9418 14.0265 36.5826 14.6672C37.2233 15.308 37.5833 16.177 37.5833 17.0832V29.0415C37.5833 29.9477 37.2233 30.8167 36.5826 31.4575C35.9418 32.0982 35.0728 32.4582 34.1666 32.4582H27.5588C26.9688 32.4582 26.3888 32.3054 25.8754 32.0147C25.362 31.724 24.9326 31.3053 24.629 30.7994L21.964 26.3577C21.8121 26.1051 21.5975 25.8961 21.3409 25.7511C21.0844 25.606 20.7947 25.5297 20.5 25.5297C20.2052 25.5297 19.9155 25.606 19.659 25.7511C19.4024 25.8961 19.1878 26.1051 19.0359 26.3577L16.3709 30.7994C16.0674 31.3053 15.638 31.724 15.1245 32.0147C14.6111 32.3054 14.0311 32.4582 13.4411 32.4582H6.83329C5.92714 32.4582 5.05809 32.0982 4.41734 31.4575C3.7766 30.8167 3.41663 29.9477 3.41663 29.0415V17.0832ZM6.51383 11.584C7.13769 10.6484 7.98284 9.88114 8.9743 9.35039C9.96576 8.81965 11.0729 8.5418 12.1975 8.5415H28.799C29.9239 8.54152 31.0314 8.81923 32.0232 9.34999C33.0149 9.88075 33.8604 10.6481 34.4844 11.584L35.875 13.6665H5.12496L6.51383 11.584Z" fill="white" stroke="black" stroke-width="3.41667" stroke-linecap="round" stroke-linejoin="round"/>
</svg>
