<?xml version="1.0" encoding="UTF-8"?>
<svg version="1.1" xmlns="http://www.w3.org/2000/svg" width="800" height="784">
<path d="M0 0 C264 0 528 0 800 0 C800 258.72 800 517.44 800 784 C536 784 272 784 0 784 C0 525.28 0 266.56 0 0 Z " fill="#010019" transform="translate(0,0)"/>
<path d="M0 0 C21.88485528 18.34816973 35.63401163 42.57782303 38.90576172 71.07568359 C40.56530344 96.98009263 34.99027294 122.24350805 18.90576172 143.07568359 C18.49986816 143.60355469 18.09397461 144.13142578 17.67578125 144.67529297 C0.70915935 166.46306637 -23.3397446 180.32234249 -50.71923828 184.32568359 C-78.04486934 187.480808 -105.78278598 180.76809931 -127.68408203 163.89208984 C-150.94990646 145.08728402 -164.36321135 120.35803084 -167.77783203 90.61083984 C-170.04163463 65.31773675 -162.84134125 38.64889997 -147.03173828 18.57568359 C-145.73083481 17.06561525 -144.41874675 15.56509071 -143.09423828 14.07568359 C-142.49353516 13.33318359 -141.89283203 12.59068359 -141.27392578 11.82568359 C-107.07560834 -29.38400437 -40.81538033 -32.89190632 0 0 Z " fill="#498BC7" transform="translate(478.09423828125,302.92431640625)"/>
<path d="M0 0 C0.495 0.99 0.495 0.99 1 2 C0.34 2 -0.32 2 -1 2 C-0.34 3.32 0.32 4.64 1 6 C3.31 6 5.62 6 8 6 C7.34 6.33 6.68 6.66 6 7 C6 7.99 6 8.98 6 10 C6.33 9.34 6.66 8.68 7 8 C9.56859699 6.49427073 12.05895149 5.49017475 15 5 C15.99 5.495 15.99 5.495 17 6 C17 18.21 17 30.42 17 43 C23.20264083 42.11390845 25.09250516 41.73205215 29.94140625 38.54296875 C31.01970703 37.84236328 32.09800781 37.14175781 33.20898438 36.41992188 C34.32700056 35.67604818 35.44483782 34.93190549 36.5625 34.1875 C37.6835034 33.4539439 38.8052434 32.72151216 39.92773438 31.99023438 C42.96065595 30.00640237 45.98310293 28.00809399 49 26 C50.09175537 25.31719971 51.18351074 24.63439941 52.30834961 23.9309082 C55.22341521 22.24575356 55.22341521 22.24575356 55.875 19.25 C55.91625 18.5075 55.9575 17.765 56 17 C56.99 17 57.98 17 59 17 C59.33 16.34 59.66 15.68 60 15 C60.66 14.67 61.32 14.34 62 14 C62.66 13.34 63.32 12.68 64 12 C64 12.99 64 13.98 64 15 C65.32 14.67 66.64 14.34 68 14 C68.495 14.99 68.495 14.99 69 16 C69.33 14.02 69.66 12.04 70 10 C72 11 72 11 74 14 C76.55183404 15.20450304 76.55183404 15.20450304 79 16 C79.33 15.34 79.66 14.68 80 14 C77.69 13.67 75.38 13.34 73 13 C73.33 12.01 73.66 11.02 74 10 C78.17645661 9.65196195 79.82586157 10.33781938 83 13 C84.31836295 13.69580267 85.64791086 14.37224433 87 15 C87.33 14.01 87.66 13.02 88 12 C89.98 13.98 89.98 13.98 92 16 C94.475 14.515 94.475 14.515 97 13 C97.99 14.485 97.99 14.485 99 16 C98.34 16 97.68 16 97 16 C97.99 17.98 97.99 17.98 99 20 C99.99 17.525 99.99 17.525 101 15 C101.99 15 102.98 15 104 15 C104.99 16.98 104.99 16.98 106 19 C106.33 18.67 106.66 18.34 107 18 C106.835 17.360625 106.67 16.72125 106.5 16.0625 C106 14 106 14 107 12 C109.64 12 112.28 12 115 12 C115.33 13.32 115.66 14.64 116 16 C117.32 16 118.64 16 120 16 C120.66 16.33 121.32 16.66 122 17 C123.07052604 41.29499372 115.04957865 63.03530952 98.8125 81.25 C84.5900979 96.51398612 63.43316697 107.97928243 42.46044922 109.140625 C13.58764874 110.10707857 -9.11014322 103.85767639 -30.64282227 83.80395508 C-46.35905573 68.62923242 -56.63080095 47.49417884 -57.27734375 25.56640625 C-57.48300639 7.98098128 -57.48300639 7.98098128 -56 1 C-55.67 1 -55.34 1 -55 1 C-55.09765625 3.01822917 -55.1953125 5.03645833 -55.29296875 7.0546875 C-55.19628906 7.69664062 -55.09960938 8.33859375 -55 9 C-54.01 9.66 -53.02 10.32 -52 11 C-51.34 10.34 -50.68 9.68 -50 9 C-50 8.34 -50 7.68 -50 7 C-48.68 7 -47.36 7 -46 7 C-46 5.35 -46 3.7 -46 2 C-45.67 3.32 -45.34 4.64 -45 6 C-44.34 6 -43.68 6 -43 6 C-43 4.35 -43 2.7 -43 1 C-40.5625 1.8125 -40.5625 1.8125 -38 3 C-37.67 3.99 -37.34 4.98 -37 6 C-36.01 6 -35.02 6 -34 6 C-33.67 5.34 -33.34 4.68 -33 4 C-31.35 4.66 -29.7 5.32 -28 6 C-27.67 5.01 -27.34 4.02 -27 3 C-26.01 3 -25.02 3 -24 3 C-23.505 4.485 -23.505 4.485 -23 6 C-18.87026372 5.43260132 -18.87026372 5.43260132 -15 4 C-14.34 4.99 -13.68 5.98 -13 7 C-12.67 5.35 -12.34 3.7 -12 2 C-10.68 2.66 -9.36 3.32 -8 4 C-8 4.99 -8 5.98 -8 7 C-7.01 6.67 -6.02 6.34 -5 6 C-5.495 4.515 -5.495 4.515 -6 3 C-4.02 2.01 -2.04 1.02 0 0 Z M99 13 C99.99 13.495 99.99 13.495 101 14 C100.01 14.495 100.01 14.495 99 15 C99 14.34 99 13.68 99 13 Z " fill="#315692" transform="translate(381,365)"/>
<path d="M0 0 C21.88485528 18.34816973 35.63401163 42.57782303 38.90576172 71.07568359 C40.56530344 96.98009263 34.99027294 122.24350805 18.90576172 143.07568359 C18.49986816 143.60355469 18.09397461 144.13142578 17.67578125 144.67529297 C0.70915935 166.46306637 -23.3397446 180.32234249 -50.71923828 184.32568359 C-78.04486934 187.480808 -105.78278598 180.76809931 -127.68408203 163.89208984 C-150.94990646 145.08728402 -164.36321135 120.35803084 -167.77783203 90.61083984 C-170.04163463 65.31773675 -162.84134125 38.64889997 -147.03173828 18.57568359 C-145.73083481 17.06561525 -144.41874675 15.56509071 -143.09423828 14.07568359 C-142.49353516 13.33318359 -141.89283203 12.59068359 -141.27392578 11.82568359 C-107.07560834 -29.38400437 -40.81538033 -32.89190632 0 0 Z M-122.09423828 12.07568359 C-123.29693359 13.04248047 -123.29693359 13.04248047 -124.52392578 14.02880859 C-140.66647947 27.60665749 -151.47630927 48.20565142 -154.09423828 69.07568359 C-155.63844955 96.96263773 -150.56447727 120.22400527 -131.75097656 141.60205078 C-116.99440521 158.00737236 -96.391684 169.57591546 -74.16650391 171.30322266 C-46.33244936 172.68882525 -23.69662016 165.76462158 -2.34423828 147.26318359 C15.28320377 130.60793718 24.50648098 108.23980469 26.09326172 84.23974609 C26.65486159 60.30155158 17.9384705 37.67186575 1.90576172 20.07568359 C1.28185547 19.37056641 0.65794922 18.66544922 0.01513672 17.93896484 C-14.84877079 2.04457635 -37.37360907 -8.00259229 -59.09423828 -8.92431641 C-60.32787109 -8.98425781 -60.32787109 -8.98425781 -61.58642578 -9.04541016 C-83.78734378 -9.5923893 -105.15281872 -2.20941582 -122.09423828 12.07568359 Z " fill="#F8F9F8" transform="translate(478.09423828125,302.92431640625)"/>
<path d="M0 0 C2.31 0.33 4.62 0.66 7 1 C7.495 3.475 7.495 3.475 8 6 C8.78375 5.79375 9.5675 5.5875 10.375 5.375 C11.24125 5.25125 12.1075 5.1275 13 5 C13.99 5.99 13.99 5.99 15 7 C15 6.34 15 5.68 15 5 C15.61875 5.185625 16.2375 5.37125 16.875 5.5625 C19.04160178 6.23686176 19.04160178 6.23686176 21 5 C21 5.66 21 6.32 21 7 C21.99 7.495 21.99 7.495 23 8 C23.495 8.99 23.495 8.99 24 10 C24.7425 9.195625 25.485 8.39125 26.25 7.5625 C29.97160883 4.09463722 29.97160883 4.09463722 33 4 C34.66666667 4.66666667 36.33333333 5.33333333 38 6 C39.94074861 5.72382467 39.94074861 5.72382467 42 5 C44.33094534 4.6503582 46.66404762 4.31445513 49 4 C49 3.01 49 2.02 49 1 C50.65 1.33 52.3 1.66 54 2 C54.33 1.34 54.66 0.68 55 0 C55.99 0.33 56.98 0.66 58 1 C58.33 0.67 58.66 0.34 59 0 C60.66617115 -0.04063832 62.33388095 -0.042721 64 0 C64 0.99 64 1.98 64 3 C63.67 3.33 63.34 3.66 63 4 C65.75924185 5.80411967 66.88972103 6.0127245 70.25 5.625 C71.1575 5.41875 72.065 5.2125 73 5 C73 5.99 73 6.98 73 8 C73.99 8 74.98 8 76 8 C76.78515625 10.640625 76.78515625 10.640625 77 14 C65.92694484 31.43113199 43.31359482 42.55404872 24 47 C1.2182611 51.96995475 -23.15428238 47.12948105 -42.76318359 34.90039062 C-46.37427652 32.49228498 -49.70933291 29.82468942 -53 27 C-53.91394531 26.22140625 -54.82789063 25.4428125 -55.76953125 24.640625 C-60.51097012 20.29976853 -60.51097012 20.29976853 -62 18 C-61.73046875 14.91796875 -61.73046875 14.91796875 -61 12 C-61 11.01 -61 10.02 -61 9 C-61.99 8.34 -62.98 7.68 -64 7 C-63.34 7 -62.68 7 -62 7 C-61.67 6.34 -61.34 5.68 -61 5 C-57.625 4.8125 -57.625 4.8125 -54 5 C-53.01 6.485 -53.01 6.485 -52 8 C-53.32 8 -54.64 8 -56 8 C-56.99 8.495 -56.99 8.495 -58 9 C-56.24755753 10.6483633 -56.24755753 10.6483633 -54 12 C-51.79199472 11.78282648 -51.79199472 11.78282648 -50 11 C-50 11.66 -50 12.32 -50 13 C-47.02252712 12.2660481 -47.02252712 12.2660481 -45.5 10.4375 C-44 9 -44 9 -41 9 C-40.34 7.68 -39.68 6.36 -39 5 C-37.68 5 -36.36 5 -35 5 C-35.33 6.32 -35.66 7.64 -36 9 C-36.66 9 -37.32 9 -38 9 C-38.33 9.66 -38.66 10.32 -39 11 C-38.01 10.67 -37.02 10.34 -36 10 C-35.236875 10.185625 -34.47375 10.37125 -33.6875 10.5625 C-30.27900985 11.11737049 -28.20217203 10.1834114 -25 9 C-24.01 9 -23.02 9 -22 9 C-21.34 9.66 -20.68 10.32 -20 11 C-19.34 10.67 -18.68 10.34 -18 10 C-17.505 10.495 -17.505 10.495 -17 11 C-16.67 10.34 -16.34 9.68 -16 9 C-15.34 10.65 -14.68 12.3 -14 14 C-12.948125 13.54625 -11.89625 13.0925 -10.8125 12.625 C-6.91389099 10.95529271 -3.02545696 9.34181899 1 8 C1 7.34 1 6.68 1 6 C0.34 5.67 -0.32 5.34 -1 5 C0.485 3.515 0.485 3.515 2 2 C1.01 1.01 1.01 1.01 0 0 Z M23 5 C23.99 5.495 23.99 5.495 25 6 C24.67 6.66 24.34 7.32 24 8 C23.67 7.01 23.34 6.02 23 5 Z " fill="#243270" transform="translate(408,426)"/>
<path d="M0 0 C2.10375 0.0309375 2.10375 0.0309375 4.25 0.0625 C4.25 3.3625 4.25 6.6625 4.25 10.0625 C5.24 9.7325 6.23 9.4025 7.25 9.0625 C7.25 6.0925 7.25 3.1225 7.25 0.0625 C8.9 0.0625 10.55 0.0625 12.25 0.0625 C11.92 1.7125 11.59 3.3625 11.25 5.0625 C12.09304688 4.52496094 12.09304688 4.52496094 12.953125 3.9765625 C15.90612025 2.80139092 17.07518391 3.31918796 20 4.4375 C20.79921875 4.73398437 21.5984375 5.03046875 22.421875 5.3359375 C23.02515625 5.57570313 23.6284375 5.81546875 24.25 6.0625 C24.58 4.7425 24.91 3.4225 25.25 2.0625 C26.57 1.7325 27.89 1.4025 29.25 1.0625 C29.25 1.7225 29.25 2.3825 29.25 3.0625 C28.59 3.0625 27.93 3.0625 27.25 3.0625 C29.23 6.0325 29.23 6.0325 31.25 9.0625 C31.91 8.0725 32.57 7.0825 33.25 6.0625 C35.23 6.7225 37.21 7.3825 39.25 8.0625 C39.25 8.7225 39.25 9.3825 39.25 10.0625 C41.725 10.5575 41.725 10.5575 44.25 11.0625 C44.25 12.0525 44.25 13.0425 44.25 14.0625 C43.92 14.3925 43.59 14.7225 43.25 15.0625 C43.91 14.0725 44.57 13.0825 45.25 12.0625 C46.24 12.3925 47.23 12.7225 48.25 13.0625 C50.09046388 13.0625 51.64629594 11.89021823 53.25 11.0625 C53.91 12.0525 54.57 13.0425 55.25 14.0625 C59.74585171 14.0625 63.98222039 13.4850932 68.25 12.0625 C68.25 13.0525 68.25 14.0425 68.25 15.0625 C69.24 13.0825 70.23 11.1025 71.25 9.0625 C71.91 9.0625 72.57 9.0625 73.25 9.0625 C72.755 7.5775 72.755 7.5775 72.25 6.0625 C72.58 5.4025 72.91 4.7425 73.25 4.0625 C74.24 4.3925 75.23 4.7225 76.25 5.0625 C75.59 5.3925 74.93 5.7225 74.25 6.0625 C79.72774766 7.64571067 79.72774766 7.64571067 85.25 9.0625 C85.25 8.4025 85.25 7.7425 85.25 7.0625 C86.301875 6.918125 87.35375 6.77375 88.4375 6.625 C94.42360243 6.07883015 94.42360243 6.07883015 99.25 3.0625 C101.56 3.7225 103.87 4.3825 106.25 5.0625 C106.25 5.7225 106.25 6.3825 106.25 7.0625 C108.56 7.7225 110.87 8.3825 113.25 9.0625 C113.58 8.4025 113.91 7.7425 114.25 7.0625 C115.24 8.0525 115.24 8.0525 116.25 9.0625 C117.57 9.0625 118.89 9.0625 120.25 9.0625 C120.58 9.3925 120.91 9.7225 121.25 10.0625 C120.92 9.0725 120.59 8.0825 120.25 7.0625 C120.6875 4.875 120.6875 4.875 121.25 3.0625 C122.425625 3.3409375 122.425625 3.3409375 123.625 3.625 C126.22089775 4.32212266 126.22089775 4.32212266 128.25 3.0625 C128.25 3.7225 128.25 4.3825 128.25 5.0625 C129.57 5.0625 130.89 5.0625 132.25 5.0625 C132.25 3.7425 132.25 2.4225 132.25 1.0625 C133.57 0.7325 134.89 0.4025 136.25 0.0625 C135.92 2.0425 135.59 4.0225 135.25 6.0625 C135.58 5.4025 135.91 4.7425 136.25 4.0625 C139.3125 3.4375 139.3125 3.4375 142.25 3.0625 C142.25 4.0525 142.25 5.0425 142.25 6.0625 C141.92 6.3925 141.59 6.7225 141.25 7.0625 C144.87885324 7.21399298 144.87885324 7.21399298 148.25 6.0625 C148.25 6.7225 148.25 7.3825 148.25 8.0625 C150.89 8.0625 153.53 8.0625 156.25 8.0625 C156.25 8.7225 156.25 9.3825 156.25 10.0625 C156.91 10.0625 157.57 10.0625 158.25 10.0625 C159.87971426 21.52223679 153.39898945 29.97505542 147.25 39.0625 C145.91666667 37.72916667 144.58333333 36.39583333 143.25 35.0625 C142.59 34.7325 141.93 34.4025 141.25 34.0625 C140.92 33.7325 140.59 33.4025 140.25 33.0625 C138.92405895 32.70087971 137.59061543 32.36521961 136.25 32.0625 C135.92 32.7225 135.59 33.3825 135.25 34.0625 C134.92 33.0725 134.59 32.0825 134.25 31.0625 C132.27 31.5575 132.27 31.5575 130.25 32.0625 C129.92 31.4025 129.59 30.7425 129.25 30.0625 C131.23 28.5775 131.23 28.5775 133.25 27.0625 C131.6 26.7325 129.95 26.4025 128.25 26.0625 C128.25 26.7225 128.25 27.3825 128.25 28.0625 C125.25 27.0625 125.25 27.0625 124.25 26.0625 C123.92 27.0525 123.59 28.0425 123.25 29.0625 C122.26 29.0625 121.27 29.0625 120.25 29.0625 C119.693125 29.578125 119.13625 30.09375 118.5625 30.625 C114.98631146 32.84803612 112.3170965 31.80813436 108.25 31.0625 C107.92 31.7225 107.59 32.3825 107.25 33.0625 C104.94 32.4025 102.63 31.7425 100.25 31.0625 C99.59 31.7225 98.93 32.3825 98.25 33.0625 C96.26231606 34.41412508 94.2633653 35.74943567 92.25 37.0625 C91.26 35.4125 90.27 33.7625 89.25 32.0625 C88.26 32.5575 88.26 32.5575 87.25 33.0625 C87.25 32.4025 87.25 31.7425 87.25 31.0625 C86.26 31.0625 85.27 31.0625 84.25 31.0625 C84.745 32.5475 84.745 32.5475 85.25 34.0625 C84.26 34.5575 84.26 34.5575 83.25 35.0625 C82.92 34.0725 82.59 33.0825 82.25 32.0625 C80.23491642 31.32926204 80.23491642 31.32926204 78.25 31.0625 C77.92 31.7225 77.59 32.3825 77.25 33.0625 C76.26 30.5875 76.26 30.5875 75.25 28.0625 C74.26 28.0625 73.27 28.0625 72.25 28.0625 C72.25 28.7225 72.25 29.3825 72.25 30.0625 C70.765 30.5575 70.765 30.5575 69.25 31.0625 C69.745 32.5475 69.745 32.5475 70.25 34.0625 C65.63194915 37.29513559 60.61785295 38.59285482 55.25 40.0625 C54.59 39.0725 53.93 38.0825 53.25 37.0625 C52.59 37.7225 51.93 38.3825 51.25 39.0625 C50.92 38.4025 50.59 37.7425 50.25 37.0625 C49.26 37.0625 48.27 37.0625 47.25 37.0625 C46.59 36.876875 45.93 36.69125 45.25 36.5 C43.05883384 35.84197007 43.05883384 35.84197007 40.25 37.0625 C39.59 37.7225 38.93 38.3825 38.25 39.0625 C37.26 38.4025 36.27 37.7425 35.25 37.0625 C34.26 37.0625 33.27 37.0625 32.25 37.0625 C31.59 37.0625 30.93 37.0625 30.25 37.0625 C31.125 33.1875 31.125 33.1875 32.25 32.0625 C31.26 32.3925 30.27 32.7225 29.25 33.0625 C28.51676204 35.07758358 28.51676204 35.07758358 28.25 37.0625 C26.93 36.7325 25.61 36.4025 24.25 36.0625 C23.59 37.3825 22.93 38.7025 22.25 40.0625 C20.27 39.4025 18.29 38.7425 16.25 38.0625 C15.92 38.7225 15.59 39.3825 15.25 40.0625 C12.775 37.5875 12.775 37.5875 10.25 35.0625 C13.25 33.0625 13.25 33.0625 16.25 33.0625 C12.92465243 31.95405081 10.62817425 32.21795644 7.25 33.0625 C7.91 33.3925 8.57 33.7225 9.25 34.0625 C10.125 36.375 10.125 36.375 10.25 39.0625 C8.2578125 41.23046875 8.2578125 41.23046875 6.25 43.0625 C4.80628097 41.19202125 3.37006561 39.31649303 1.9375 37.4375 C1.13699219 36.39335937 0.33648437 35.34921875 -0.48828125 34.2734375 C-3.99696365 29.29219927 -6.06435942 25.30700545 -6.4375 19.1875 C-6.50324219 18.22070312 -6.56898438 17.25390625 -6.63671875 16.2578125 C-6.67410156 15.53335937 -6.71148437 14.80890625 -6.75 14.0625 C-6.09 14.0625 -5.43 14.0625 -4.75 14.0625 C-4.42 12.4125 -4.09 10.7625 -3.75 9.0625 C-4.74 9.0625 -5.73 9.0625 -6.75 9.0625 C-7.41 6.4225 -8.07 3.7825 -8.75 1.0625 C-5.48118027 0.24529507 -3.28000931 -0.04823543 0 0 Z M92.25 31.0625 C92.58 32.0525 92.91 33.0425 93.25 34.0625 C93.25 33.0725 93.25 32.0825 93.25 31.0625 C92.92 31.0625 92.59 31.0625 92.25 31.0625 Z " fill="#2C4987" transform="translate(338.75,399.9375)"/>
<path d="M0 0 C12.49400805 10.79452414 12.49400805 10.79452414 14.0625 15.5 C11.5875 16.985 11.5875 16.985 9.0625 18.5 C8.0725 17.84 7.0825 17.18 6.0625 16.5 C2.8996515 17.30404463 2.8996515 17.30404463 0.0625 18.5 C-0.2675 17.84 -0.5975 17.18 -0.9375 16.5 C-2.5875 17.16 -4.2375 17.82 -5.9375 18.5 C-5.9375 17.84 -5.9375 17.18 -5.9375 16.5 C-8.98136724 16.41773332 -11.00925348 16.52391783 -13.9375 17.5 C-18.69584749 17.5 -22.35704333 16.88277937 -26.9375 15.5 C-27.4325 16.49 -27.4325 16.49 -27.9375 17.5 C-30.60416667 16.83333333 -33.27083333 16.16666667 -35.9375 15.5 C-35.9375 16.16 -35.9375 16.82 -35.9375 17.5 C-37.0203125 17.2215625 -37.0203125 17.2215625 -38.125 16.9375 C-41.12944157 16.47014242 -43.00978304 16.76807076 -45.9375 17.5 C-50.71527778 18.61111111 -50.71527778 18.61111111 -52.9375 17.5 C-53.9275 18.49 -53.9275 18.49 -54.9375 19.5 C-54.9375 18.84 -54.9375 18.18 -54.9375 17.5 C-60.49907448 16.58542997 -64.613165 16.17913603 -69.9375 18.5 C-70.2675 17.84 -70.5975 17.18 -70.9375 16.5 C-70.2775 16.17 -69.6175 15.84 -68.9375 15.5 C-69.9275 15.5 -70.9175 15.5 -71.9375 15.5 C-72.5975 16.49 -73.2575 17.48 -73.9375 18.5 C-76.4375 18.8125 -76.4375 18.8125 -78.9375 18.5 C-79.5975 17.84 -80.2575 17.18 -80.9375 16.5 C-84.31113477 16.19330593 -86.71471789 16.4257393 -89.9375 17.5 C-93.11730983 18.55993661 -95.61046515 18.65843023 -98.9375 18.5 C-99.2675 17.84 -99.5975 17.18 -99.9375 16.5 C-100.2675 17.49 -100.5975 18.48 -100.9375 19.5 C-104.7285119 18.05049545 -108.3249638 16.34827434 -111.9375 14.5 C-111.9375 15.16 -111.9375 15.82 -111.9375 16.5 C-112.5975 16.5 -113.2575 16.5 -113.9375 16.5 C-113.9375 15.84 -113.9375 15.18 -113.9375 14.5 C-117.05535113 15.14644661 -117.05535113 15.14644661 -117.9375 17.5 C-119.2575 17.17 -120.5775 16.84 -121.9375 16.5 C-121.9375 17.49 -121.9375 18.48 -121.9375 19.5 C-122.5975 19.5 -123.2575 19.5 -123.9375 19.5 C-124.4325 18.015 -124.4325 18.015 -124.9375 16.5 C-124.9375 17.49 -124.9375 18.48 -124.9375 19.5 C-126.2575 19.5 -127.5775 19.5 -128.9375 19.5 C-124.40268041 5.94430274 -109.11224081 -3.65121861 -97 -9.8125 C-65.47622647 -25.19040513 -27.59349283 -22.04438821 0 0 Z " fill="#4D98D3" transform="translate(469.9375,313.5)"/>
<path d="M0 0 C1 1 2 2 3 3 C4.91424457 2.8981629 4.91424457 2.8981629 7.0625 2.5625 C9.0115625 2.2840625 9.0115625 2.2840625 11 2 C11 2.66 11 3.32 11 4 C12.65 3.34 14.3 2.68 16 2 C17.26264601 6.29299643 16.62950412 8.87831311 15 13 C13.5 11.6875 13.5 11.6875 12 10 C12 9.01 12 8.02 12 7 C8.7 7.66 5.4 8.32 2 9 C2.95777344 9.59425781 3.91554688 10.18851562 4.90234375 10.80078125 C16.02805768 17.72031214 27.0978604 24.73190693 38 32 C38.42578125 34.43359375 38.42578125 34.43359375 38 37 C36.48046875 38.59765625 36.48046875 38.59765625 34.1875 40.0625 C32.84171875 40.93841797 32.84171875 40.93841797 31.46875 41.83203125 C30.31265767 42.55493971 29.15638646 43.27756213 28 44 C26.42642853 45.00287957 24.8535658 46.00687169 23.28125 47.01171875 C19.20499239 49.60769873 15.12480111 52.19661836 11.01318359 54.73632812 C9.39265334 55.75353217 7.80876068 56.82898126 6.23828125 57.921875 C4 59 4 59 -1 58 C-1.33 45.79 -1.66 33.58 -2 21 C-5.9714169 21.62841973 -5.9714169 21.62841973 -8 24 C-10.125 24.625 -10.125 24.625 -12 25 C-12 24.01 -12 23.02 -12 22 C-12.763125 22.061875 -13.52625 22.12375 -14.3125 22.1875 C-17 22 -17 22 -18.8125 20.5 C-19.204375 20.005 -19.59625 19.51 -20 19 C-19.67 18.34 -19.34 17.68 -19 17 C-20.65 17.33 -22.3 17.66 -24 18 C-23.34 18.33 -22.68 18.66 -22 19 C-22.33 20.32 -22.66 21.64 -23 23 C-23.99 22.67 -24.98 22.34 -26 22 C-26 21.01 -26 20.02 -26 19 C-26.99 19.33 -27.98 19.66 -29 20 C-29.33 20 -29.66 20 -30 20 C-30.33 20.66 -30.66 21.32 -31 22 C-30.34 22.33 -29.68 22.66 -29 23 C-30.32 22.67 -31.64 22.34 -33 22 C-33 21.01 -33 20.02 -33 19 C-33.33 19.66 -33.66 20.32 -34 21 C-36.32156597 21.40729228 -38.6568787 21.74438677 -41 22 C-41.495 20.02 -41.495 20.02 -42 18 C-42.99 18 -43.98 18 -45 18 C-45.33 19.32 -45.66 20.64 -46 22 C-47.65 21.34 -49.3 20.68 -51 20 C-50.34 20.99 -49.68 21.98 -49 23 C-52.12290635 22.51421457 -54.99580359 22.0013988 -58 21 C-59.1875 18.9375 -59.1875 18.9375 -60 17 C-60.33 18.32 -60.66 19.64 -61 21 C-63.31 21.33 -65.62 21.66 -68 22 C-67.67 22.99 -67.34 23.98 -67 25 C-68.98 25.99 -68.98 25.99 -71 27 C-72.5625 25.4375 -72.5625 25.4375 -74 23 C-73.76147854 18.62710648 -72.80753798 14.97658355 -71 11 C-70.34 11 -69.68 11 -69 11 C-68.67 10.34 -68.34 9.68 -68 9 C-68 9.66 -68 10.32 -68 11 C-67.34 11 -66.68 11 -66 11 C-65.67 9.68 -65.34 8.36 -65 7 C-62.03 7.495 -62.03 7.495 -59 8 C-59.66 6.02 -60.32 4.04 -61 2 C-59.1875 1.375 -59.1875 1.375 -57 1 C-56.01 1.66 -55.02 2.32 -54 3 C-53.01 2.34 -52.02 1.68 -51 1 C-50.1028125 1.495 -50.1028125 1.495 -49.1875 2 C-45.19335344 3.82589557 -41.21904445 2.6368369 -37 2 C-37.33 3.32 -37.66 4.64 -38 6 C-37.01 6 -36.02 6 -35 6 C-35.495 4.02 -35.495 4.02 -36 2 C-34.02 2.33 -32.04 2.66 -30 3 C-31 6 -31 6 -32 7 C-31.01 7 -30.02 7 -29 7 C-29 6.01 -29 5.02 -29 4 C-25.535 2.515 -25.535 2.515 -22 1 C-21.505 1.99 -21.505 1.99 -21 3 C-20.21753906 2.98839844 -19.43507813 2.97679687 -18.62890625 2.96484375 C-17.61699219 2.95582031 -16.60507812 2.94679688 -15.5625 2.9375 C-14.55316406 2.92589844 -13.54382813 2.91429687 -12.50390625 2.90234375 C-10 3 -10 3 -9 4 C-6.10064073 5.40403749 -6.10064073 5.40403749 -3 6 C-2.814375 5.071875 -2.814375 5.071875 -2.625 4.125 C-2 2 -2 2 0 0 Z " fill="#3F78B2" transform="translate(399,350)"/>
<path d="M0 0 C0 0.66 0 1.32 0 2 C0.99 2 1.98 2 3 2 C3.33 1.34 3.66 0.68 4 0 C6.66666667 0 9.33333333 0 12 0 C12.495 1.485 12.495 1.485 13 3 C13 2.01 13 1.02 13 0 C14.64574566 -0.02688151 16.29161413 -0.04634123 17.9375 -0.0625 C19.31228516 -0.07990234 19.31228516 -0.07990234 20.71484375 -0.09765625 C23 0 23 0 24 1 C24.598125 0.835 25.19625 0.67 25.8125 0.5 C28 0 28 0 29.8125 0.5625 C32.19121303 1.2204893 32.19121303 1.2204893 35.1875 0 C39.78748136 -1.20655249 43.37199971 -0.77658055 48 0 C47.67 0.66 47.34 1.32 47 2 C48.1446875 1.7525 48.1446875 1.7525 49.3125 1.5 C52 1 52 1 55 1 C54.34 1.33 53.68 1.66 53 2 C54.04698999 3.27998995 54.04698999 3.27998995 56.3984375 3.02734375 C58.37768936 2.96760255 60.35686035 2.90511674 62.3359375 2.83984375 C65 3 65 3 68 5 C71.59949484 15.72157224 72.18840675 26.80026528 72 38 C71.67 38 71.34 38 71 38 C71 35.36 71 32.72 71 30 C67.41672247 28.99782936 67.41672247 28.99782936 64 30 C63.505 28.02 63.505 28.02 63 26 C60.69 26 58.38 26 56 26 C56 26.99 56 27.98 56 29 C56.99 29.99 56.99 29.99 58 31 C58 31.66 58 32.32 58 33 C55.13275314 32.42655063 54.1385485 32.1385485 52 30 C50.515 30.495 50.515 30.495 49 31 C48.26676204 33.01508358 48.26676204 33.01508358 48 35 C46.23537317 31.91190305 46 30.76687864 46 27 C42.72226496 27.75150023 42.72226496 27.75150023 41 31 C39.68 29.35 38.36 27.7 37 26 C36.67 26.66 36.34 27.32 36 28 C32.17902761 27.46930939 29.93828597 26.50298434 27 24 C26.505 24.495 26.505 24.495 26 25 C25.34 25 24.68 25 24 25 C25.98 25.66 27.96 26.32 30 27 C29.01 27.99 28.02 28.98 27 30 C25.68 29.34 24.36 28.68 23 28 C22.34 28.66 21.68 29.32 21 30 C20.505 28.515 20.505 28.515 20 27 C19.01 27.99 18.02 28.98 17 30 C17 29.01 17 28.02 17 27 C16.360625 27.185625 15.72125 27.37125 15.0625 27.5625 C14.381875 27.706875 13.70125 27.85125 13 28 C12.67 27.67 12.34 27.34 12 27 C11.67 27.66 11.34 28.32 11 29 C10.34 28.67 9.68 28.34 9 28 C8.34 29.32 7.68 30.64 7 32 C7 31.34 7 30.68 7 30 C6.29133789 29.90557617 5.58267578 29.81115234 4.85253906 29.71386719 C1.48888079 28.87208896 -0.74436186 27.48088564 -3.640625 25.578125 C-5.24744141 24.53398437 -5.24744141 24.53398437 -6.88671875 23.46875 C-8.00812193 22.72963594 -9.1292141 21.99004977 -10.25 21.25 C-17.37748821 16.58229276 -24.46286573 11.98398298 -32 8 C-29.25537109 5.03662109 -29.25537109 5.03662109 -26.95703125 4.70703125 C-24.97135417 4.8046875 -22.98567708 4.90234375 -21 5 C-20.34 6.65 -19.68 8.3 -19 10 C-17.68 6.7 -16.36 3.4 -15 0 C-14.34 0.33 -13.68 0.66 -13 1 C-9.82519449 0.64724383 -6.77336247 0.20901688 -3.6875 -0.625 C-2 -1 -2 -1 0 0 Z M48 26 C48.33 26.66 48.66 27.32 49 28 C49.33 27.34 49.66 26.68 50 26 C49.34 26 48.68 26 48 26 Z " fill="#3F77B1" transform="translate(432,352)"/>
<path d="M0 0 C0.61157959 0.31984863 1.22315918 0.63969727 1.85327148 0.96923828 C5.86781309 3.18766827 8.73913654 5.66618201 11.8125 9 C11.4825 9.66 11.1525 10.32 10.8125 11 C8.25 11.625 8.25 11.625 5.8125 12 C5.3175 11.01 5.3175 11.01 4.8125 10 C2.78786745 9.34786708 2.78786745 9.34786708 0.8125 9 C0.8125 8.34 0.8125 7.68 0.8125 7 C-0.1775 7 -1.1675 7 -2.1875 7 C-2.5175 8.32 -2.8475 9.64 -3.1875 11 C-6.62265002 11.62457273 -9.67814814 12 -13.1875 12 C-12.1975 12.66 -11.2075 13.32 -10.1875 14 C-12.1875 15 -12.1875 15 -14.0625 14.44140625 C-14.76375 14.15136719 -15.465 13.86132812 -16.1875 13.5625 C-19.09665074 12.33442475 -19.09665074 12.33442475 -22.1875 12 C-22.8475 12.33 -23.5075 12.66 -24.1875 13 C-24.6825 12.01 -24.6825 12.01 -25.1875 11 C-26.5075 11.33 -27.8275 11.66 -29.1875 12 C-29.1875 12.66 -29.1875 13.32 -29.1875 14 C-30.6725 14.495 -30.6725 14.495 -32.1875 15 C-34.375 13.5625 -34.375 13.5625 -36.1875 12 C-34.5375 12 -32.8875 12 -31.1875 12 C-32.8375 11.67 -34.4875 11.34 -36.1875 11 C-36.1875 10.34 -36.1875 9.68 -36.1875 9 C-37.1775 10.485 -37.1775 10.485 -38.1875 12 C-40.99311762 12.28056176 -42.65328263 12.26710868 -45.1875 11 C-45.1875 10.34 -45.1875 9.68 -45.1875 9 C-46.8375 9 -48.4875 9 -50.1875 9 C-50.1875 9.66 -50.1875 10.32 -50.1875 11 C-53.1875 12 -53.1875 12 -57.1875 12 C-57.6825 10.515 -57.6825 10.515 -58.1875 9 C-61.3190587 9.89767656 -61.3190587 9.89767656 -64.1875 12 C-63.5275 12.33 -62.8675 12.66 -62.1875 13 C-63.8375 13.33 -65.4875 13.66 -67.1875 14 C-67.1875 13.34 -67.1875 12.68 -67.1875 12 C-69.1675 12 -71.1475 12 -73.1875 12 C-73.1875 11.34 -73.1875 10.68 -73.1875 10 C-73.8475 10.33 -74.5075 10.66 -75.1875 11 C-75.1875 11.66 -75.1875 12.32 -75.1875 13 C-78.59771743 12.21302675 -81.87635166 11.12880057 -85.1875 10 C-84.8575 11.32 -84.5275 12.64 -84.1875 14 C-86.1675 14.99 -88.1475 15.98 -90.1875 17 C-90.1875 11 -90.1875 11 -89.1875 10 C-89.86296875 10.34933594 -90.5384375 10.69867188 -91.234375 11.05859375 C-92.57242187 11.74115234 -92.57242187 11.74115234 -93.9375 12.4375 C-94.81921875 12.88996094 -95.7009375 13.34242188 -96.609375 13.80859375 C-98.82948566 14.83455398 -100.80194619 15.51508603 -103.1875 16 C-102.8575 15.34 -102.5275 14.68 -102.1875 14 C-102.8475 13.34 -103.5075 12.68 -104.1875 12 C-74.20871241 -12.52809894 -34.75961241 -18.25105531 0 0 Z M-72.1875 13 C-69.75 13.375 -69.75 13.375 -67.1875 14 C-66.8575 14.66 -66.5275 15.32 -66.1875 16 C-68.1675 15.34 -70.1475 14.68 -72.1875 14 C-72.1875 13.67 -72.1875 13.34 -72.1875 13 Z " fill="#51A3DE" transform="translate(457.1875,305)"/>
<path d="M0 0 C2 3 2 3 2 5 C1.01 5.66 0.02 6.32 -1 7 C-1.25030977 9.58380177 -1.25030977 9.58380177 -1 12 C-0.71125 11.195625 -0.4225 10.39125 -0.125 9.5625 C1 7 1 7 3 6 C3.66 6.33 4.32 6.66 5 7 C4.67 6.01 4.34 5.02 4 4 C4.763125 4.165 5.52625 4.33 6.3125 4.5 C9.03596236 5.09145396 9.03596236 5.09145396 12 5 C12.33 4.34 12.66 3.68 13 3 C13.99 3.33 14.98 3.66 16 4 C16 3.34 16 2.68 16 2 C16.61488281 2.0721875 17.22976563 2.144375 17.86328125 2.21875 C18.67152344 2.3115625 19.47976563 2.404375 20.3125 2.5 C21.51326172 2.63921875 21.51326172 2.63921875 22.73828125 2.78125 C25.70385127 3.06807542 28.18292309 2.96707384 31.125 2.4375 C32.07375 2.293125 33.0225 2.14875 34 2 C35 3 36 4 37 5 C39.64779693 5 41.51587793 4.82804069 44 4 C44.33 3.34 44.66 2.68 45 2 C48.62528568 1.79859524 50.86501708 2.14223235 54 4 C55.485 3.01 55.485 3.01 57 2 C57.66 2 58.32 2 59 2 C59.66 1.79375 60.32 1.5875 61 1.375 C61.66 1.25125 62.32 1.1275 63 1 C63.99 1.99 63.99 1.99 65 3 C65.33 2.34 65.66 1.68 66 1 C66.680625 1.309375 67.36125 1.61875 68.0625 1.9375 C73.16951711 3.78471895 77.72372004 4.43898544 83 3 C83.33 2.01 83.66 1.02 84 0 C84.66 0 85.32 0 86 0 C86 0.66 86 1.32 86 2 C90.3164922 2.76173392 93.74433453 3.16063604 98 2 C98 2.66 98 3.32 98 4 C99.32 4 100.64 4 102 4 C102 3.34 102 2.68 102 2 C105 3 105 3 107 5 C107.33 4.34 107.66 3.68 108 3 C108.99 3.66 109.98 4.32 111 5 C112.98 4.01 114.96 3.02 117 2 C117 2.66 117 3.32 117 4 C117.763125 3.814375 118.52625 3.62875 119.3125 3.4375 C122 3 122 3 125 4 C124.67 3.01 124.34 2.02 124 1 C125.98 1.66 127.96 2.32 130 3 C130 2.34 130 1.68 130 1 C132.375 1.3125 132.375 1.3125 135 2 C135.99 3.485 135.99 3.485 137 5 C137.66 4.01 138.32 3.02 139 2 C139.99 2 140.98 2 142 2 C142 2.66 142 3.32 142 4 C142.66 4 143.32 4 144 4 C144 4.66 144 5.32 144 6 C144.99 6 145.98 6 147 6 C147 5.34 147 4.68 147 4 C146.34 4 145.68 4 145 4 C145 3.34 145 2.68 145 2 C148.96 2 152.92 2 157 2 C157 2.66 157 3.32 157 4 C157.99 4.33 158.98 4.66 160 5 C161.203125 6.9609375 161.203125 6.9609375 162.25 9.375 C162.60578125 10.16648437 162.9615625 10.95796875 163.328125 11.7734375 C164 14 164 14 163 17 C162.43796875 16.83628906 161.8759375 16.67257812 161.296875 16.50390625 C158.86940944 15.97135003 156.73110319 15.90101319 154.25 15.9375 C153.05117188 15.95103516 153.05117188 15.95103516 151.828125 15.96484375 C151.22484375 15.97644531 150.6215625 15.98804688 150 16 C150 15.01 150 14.02 150 13 C149.34 13.66 148.68 14.32 148 15 C144.9609375 15.1953125 144.9609375 15.1953125 141.375 15.125 C140.18648437 15.10695313 138.99796875 15.08890625 137.7734375 15.0703125 C136.85820312 15.04710937 135.94296875 15.02390625 135 15 C135 14.67 135 14.34 135 14 C136.65 13.67 138.3 13.34 140 13 C137.64632287 12.3121764 137.64632287 12.3121764 135 12 C134.01 12.66 133.02 13.32 132 14 C130.68 14 129.36 14 128 14 C128 13.34 128 12.68 128 12 C127.01 12 126.02 12 125 12 C124.67 12.66 124.34 13.32 124 14 C123.67 13.67 123.34 13.34 123 13 C122.01 13.33 121.02 13.66 120 14 C117.625 13.625 117.625 13.625 115 13 C114.071875 12.814375 113.14375 12.62875 112.1875 12.4375 C111.1046875 12.2209375 111.1046875 12.2209375 110 12 C110 12.99 110 13.98 110 15 C109.01 14.67 108.02 14.34 107 14 C107.66 14 108.32 14 109 14 C109 13.34 109 12.68 109 12 C108.01 12 107.02 12 106 12 C105.67 12.66 105.34 13.32 105 14 C98.9453125 14.1953125 98.9453125 14.1953125 97 14 C96.01 13.01 96.01 13.01 95 12 C90.49682877 12.35263785 90.49682877 12.35263785 87 15 C86.505 14.01 86.505 14.01 86 13 C85.34 13 84.68 13 84 13 C83.67 13.66 83.34 14.32 83 15 C82.360625 14.835 81.72125 14.67 81.0625 14.5 C79.19173179 13.96073333 79.19173179 13.96073333 78 14 C77.113125 13.814375 76.22625 13.62875 75.3125 13.4375 C72.00373281 12.83304986 72.00373281 12.83304986 68.75 13.5625 C67.8425 13.706875 66.935 13.85125 66 14 C65.01 13.01 65.01 13.01 64 12 C63.34 12.33 62.68 12.66 62 13 C61.34444881 15.52733235 61.34444881 15.52733235 61 18 C58 17 58 17 56 15 C55.34 15.33 54.68 15.66 54 16 C53.34 15.34 52.68 14.68 52 14 C49.93390214 13.53780309 49.93390214 13.53780309 47.625 13.375 C46.85414063 13.30023438 46.08328125 13.22546875 45.2890625 13.1484375 C41.64584481 12.91218789 38.49943254 13.00016213 35 14 C35 14.99 35 15.98 35 17 C34.01 17 33.02 17 32 17 C33 14 33 14 34 13 C32.02 12.67 30.04 12.34 28 12 C28.495 13.98 28.495 13.98 29 16 C28.01 16 27.02 16 26 16 C25.505 14.515 25.505 14.515 25 13 C23.35 13.33 21.7 13.66 20 14 C19.67 13.34 19.34 12.68 19 12 C18.67 12.66 18.34 13.32 18 14 C17.401875 13.835 16.80375 13.67 16.1875 13.5 C13.88655664 12.8885876 13.88655664 12.8885876 11 13 C10.34 13.66 9.68 14.32 9 15 C8.01 14.01 7.02 13.02 6 12 C5.01 12.495 5.01 12.495 4 13 C4.99 14.485 4.99 14.485 6 16 C5.67 16.99 5.34 17.98 5 19 C3.02 18.67 1.04 18.34 -1 18 C-1.33 18.99 -1.66 19.98 -2 21 C-3.65 21 -5.3 21 -7 21 C-7.33 22.65 -7.66 24.3 -8 26 C-10.28448668 19.73991311 -6.23487835 12.68603482 -3.6171875 6.9921875 C-2.44513815 4.64139138 -1.247734 2.3113761 0 0 Z M-3 13 C-2 15 -2 15 -2 15 Z " fill="#4481BD" transform="translate(335,340)"/>
<path d="M0 0 C0.66 0.33 1.32 0.66 2 1 C1.67 1.66 1.34 2.32 1 3 C0.34 2.34 -0.32 1.68 -1 1 C-0.67 0.67 -0.34 0.34 0 0 Z M-85 -2 C-84.67 -1.34 -84.34 -0.68 -84 0 C-81.47266765 0.65555119 -81.47266765 0.65555119 -79 1 C-79 1.99 -79 2.98 -79 4 C-78.38511719 4.02578125 -77.77023437 4.0515625 -77.13671875 4.078125 C-70.45283019 4.54716981 -70.45283019 4.54716981 -67.9375 7.0625 C-67.628125 7.701875 -67.31875 8.34125 -67 9 C-65.68 8.01 -64.36 7.02 -63 6 C-62.505 6.99 -62.505 6.99 -62 8 C-60.68 8 -59.36 8 -58 8 C-58 8.66 -58 9.32 -58 10 C-57.01 10 -56.02 10 -55 10 C-54.525625 9.505 -54.05125 9.01 -53.5625 8.5 C-52 7 -52 7 -48 7 C-47.34 6.67 -46.68 6.34 -46 6 C-46.99 6 -47.98 6 -49 6 C-49 5.34 -49 4.68 -49 4 C-49.99 4 -50.98 4 -52 4 C-51.67 3.34 -51.34 2.68 -51 2 C-50.21496094 2.144375 -49.42992187 2.28875 -48.62109375 2.4375 C-43.00389036 3.42998747 -37.70502463 4.2593193 -32 4 C-33.32 3.67 -34.64 3.34 -36 3 C-35.67 2.01 -35.34 1.02 -35 0 C-32.03 -0.495 -32.03 -0.495 -29 -1 C-29.33 -0.01 -29.66 0.98 -30 2 C-29.01 2.33 -28.02 2.66 -27 3 C-27.33 3.99 -27.66 4.98 -28 6 C-26.68 5.67 -25.36 5.34 -24 5 C-24.7763932 1.9254644 -24.7763932 1.9254644 -27 0 C-24.525 -0.495 -24.525 -0.495 -22 -1 C-21.505 1.475 -21.505 1.475 -21 4 C-20.05125 4.28875 -19.1025 4.5775 -18.125 4.875 C-15 6 -15 6 -13 8 C-11.35 7.34 -9.7 6.68 -8 6 C-7.505 6.99 -7.505 6.99 -7 8 C-5.02 8 -3.04 8 -1 8 C-1.95865509 5.66924071 -1.95865509 5.66924071 -5 4 C-3.68 3.34 -2.36 2.68 -1 2 C-1 2.99 -1 3.98 -1 5 C-0.01 5 0.98 5 2 5 C2.495 6.485 2.495 6.485 3 8 C4.32 8 5.64 8 7 8 C7 7.34 7 6.68 7 6 C6.01 5.67 5.02 5.34 4 5 C8.625 2 8.625 2 12 2 C11.505 0.515 11.505 0.515 11 -1 C13.94602056 -0.36870988 16.31599818 0.65799909 19 2 C19.70125 2.165 20.4025 2.33 21.125 2.5 C23 3 23 3 25 5 C26.093125 4.505 27.18625 4.01 28.3125 3.5 C32 2 32 2 35 2 C35 2.66 35 3.32 35 4 C35.99 4.33 36.98 4.66 38 5 C37.67 5.66 37.34 6.32 37 7 C39.97 7.33 42.94 7.66 46 8 C45.44010697 11.99012371 44.24330232 14.5255052 41.9375 17.8125 C41.11572266 18.99779297 41.11572266 18.99779297 40.27734375 20.20703125 C39.85582031 20.79871094 39.43429687 21.39039063 39 22 C37.66666667 20.66666667 36.33333333 19.33333333 35 18 C34.34 17.67 33.68 17.34 33 17 C32.67 16.67 32.34 16.34 32 16 C30.67405895 15.63837971 29.34061543 15.30271961 28 15 C27.67 15.66 27.34 16.32 27 17 C26.67 16.01 26.34 15.02 26 14 C24.02 14.495 24.02 14.495 22 15 C21.67 14.34 21.34 13.68 21 13 C22.32 12.01 23.64 11.02 25 10 C23.35 9.67 21.7 9.34 20 9 C20 9.66 20 10.32 20 11 C17 10 17 10 16 9 C15.67 9.99 15.34 10.98 15 12 C14.01 12 13.02 12 12 12 C11.443125 12.515625 10.88625 13.03125 10.3125 13.5625 C6.73631146 15.78553612 4.0670965 14.74563436 0 14 C-0.33 14.66 -0.66 15.32 -1 16 C-3.31 15.34 -5.62 14.68 -8 14 C-8.66 14.66 -9.32 15.32 -10 16 C-11.98768394 17.35162508 -13.9866347 18.68693567 -16 20 C-16.99 18.35 -17.98 16.7 -19 15 C-19.66 15.33 -20.32 15.66 -21 16 C-21 15.34 -21 14.68 -21 14 C-21.99 14 -22.98 14 -24 14 C-23.505 15.485 -23.505 15.485 -23 17 C-23.66 17.33 -24.32 17.66 -25 18 C-25.495 16.515 -25.495 16.515 -26 15 C-28.01508358 14.26676204 -28.01508358 14.26676204 -30 14 C-30.33 14.66 -30.66 15.32 -31 16 C-31.99 13.525 -31.99 13.525 -33 11 C-33.99 11 -34.98 11 -36 11 C-36 11.66 -36 12.32 -36 13 C-36.99 13.33 -37.98 13.66 -39 14 C-38.505 15.485 -38.505 15.485 -38 17 C-42.61805085 20.23263559 -47.63214705 21.53035482 -53 23 C-53.66 22.01 -54.32 21.02 -55 20 C-55.66 20.66 -56.32 21.32 -57 22 C-57.495 21.01 -57.495 21.01 -58 20 C-58.99 20 -59.98 20 -61 20 C-61.66 19.814375 -62.32 19.62875 -63 19.4375 C-65.19116616 18.77947007 -65.19116616 18.77947007 -68 20 C-68.66 20.66 -69.32 21.32 -70 22 C-70.99 21.34 -71.98 20.68 -73 20 C-73.99 20 -74.98 20 -76 20 C-76.66 20 -77.32 20 -78 20 C-77.125 16.125 -77.125 16.125 -76 15 C-76.99 15.33 -77.98 15.66 -79 16 C-79.73323796 18.01508358 -79.73323796 18.01508358 -80 20 C-81.32 19.67 -82.64 19.34 -84 19 C-84.66 20.32 -85.32 21.64 -86 23 C-87.98 22.34 -89.96 21.68 -92 21 C-92.33 21.66 -92.66 22.32 -93 23 C-94.65 21.35 -96.3 19.7 -98 18 C-95 16 -95 16 -92 16 C-95.32534757 14.89155081 -97.62182575 15.15545644 -101 16 C-100.34 16.33 -99.68 16.66 -99 17 C-98.125 19.3125 -98.125 19.3125 -98 22 C-99.9375 24.3125 -99.9375 24.3125 -102 26 C-104.96992971 22.64685356 -106.32241071 20.40433041 -107 16 C-107.37125 15.319375 -107.7425 14.63875 -108.125 13.9375 C-109.20863003 11.5380335 -108.8677564 10.42971792 -108 8 C-105.6875 7.3125 -105.6875 7.3125 -103 7 C-101.1875 8.4375 -101.1875 8.4375 -100 10 C-100 9.34 -100 8.68 -100 8 C-99.34 8 -98.68 8 -98 8 C-98 8.66 -98 9.32 -98 10 C-97.01 10 -96.02 10 -95 10 C-94.67 9.34 -94.34 8.68 -94 8 C-93.34 8 -92.68 8 -92 8 C-92 8.66 -92 9.32 -92 10 C-91.34 10 -90.68 10 -90 10 C-90 10.66 -90 11.32 -90 12 C-89.01 11.34 -88.02 10.68 -87 10 C-86.34 9.67 -85.68 9.34 -85 9 C-84.01 9.33 -83.02 9.66 -82 10 C-81.67 9.01 -81.34 8.02 -81 7 C-81.66 6.566875 -82.32 6.13375 -83 5.6875 C-83.66 5.130625 -84.32 4.57375 -85 4 C-85 2 -85 0 -85 -2 Z M-16 14 C-15.67 14.99 -15.34 15.98 -15 17 C-15 16.01 -15 15.02 -15 14 C-15.33 14 -15.66 14 -16 14 Z " fill="#273C7A" transform="translate(447,417)"/>
<path d="M0 0 C0.495 0.99 0.495 0.99 1 2 C0.34 2 -0.32 2 -1 2 C-0.34 3.32 0.32 4.64 1 6 C3.31 6 5.62 6 8 6 C7.34 6.33 6.68 6.66 6 7 C6 7.99 6 8.98 6 10 C6.33 9.34 6.66 8.68 7 8 C9.56859699 6.49427073 12.05895149 5.49017475 15 5 C15.99 5.495 15.99 5.495 17 6 C17 11.94 17 17.88 17 24 C15.35 24.33 13.7 24.66 12 25 C10.1875 23.5625 10.1875 23.5625 9 22 C8.67 23.32 8.34 24.64 8 26 C6.68 26 5.36 26 4 26 C4 25.01 4 24.02 4 23 C2.93458984 23.12568359 2.93458984 23.12568359 1.84765625 23.25390625 C0.92855469 23.35574219 0.00945312 23.45757812 -0.9375 23.5625 C-1.85402344 23.66691406 -2.77054687 23.77132813 -3.71484375 23.87890625 C-4.84599609 23.93884766 -4.84599609 23.93884766 -6 24 C-6.33 23.67 -6.66 23.34 -7 23 C-7.66 23.66 -8.32 24.32 -9 25 C-9.99 24.34 -10.98 23.68 -12 23 C-12 23.66 -12 24.32 -12 25 C-15.41021743 24.21302675 -18.68885166 23.12880057 -22 22 C-22.66 22.99 -23.32 23.98 -24 25 C-23.01 25.33 -22.02 25.66 -21 26 C-22.625 27.5625 -22.625 27.5625 -25 29 C-28.125 28.875 -28.125 28.875 -31 28 C-31.66 27.01 -32.32 26.02 -33 25 C-33.33 25.33 -33.66 25.66 -34 26 C-34 26.99 -34 27.98 -34 29 C-34.53625 29.12375 -35.0725 29.2475 -35.625 29.375 C-38.4638286 30.12206016 -41.22223202 31.05303364 -44 32 C-44.66 31.01 -45.32 30.02 -46 29 C-46.66 29.66 -47.32 30.32 -48 31 C-48 30.01 -48 29.02 -48 28 C-48.33 28.66 -48.66 29.32 -49 30 C-50.98 30.33 -52.96 30.66 -55 31 C-55.33 24.4 -55.66 17.8 -56 11 C-55.01 11 -54.02 11 -53 11 C-52.01 10.34 -51.02 9.68 -50 9 C-50 8.34 -50 7.68 -50 7 C-48.68 7 -47.36 7 -46 7 C-46 5.35 -46 3.7 -46 2 C-45.67 3.32 -45.34 4.64 -45 6 C-44.34 6 -43.68 6 -43 6 C-43 4.35 -43 2.7 -43 1 C-40.5625 1.8125 -40.5625 1.8125 -38 3 C-37.67 3.99 -37.34 4.98 -37 6 C-36.01 6 -35.02 6 -34 6 C-33.67 5.34 -33.34 4.68 -33 4 C-31.35 4.66 -29.7 5.32 -28 6 C-27.67 5.01 -27.34 4.02 -27 3 C-26.01 3 -25.02 3 -24 3 C-23.505 4.485 -23.505 4.485 -23 6 C-18.87026372 5.43260132 -18.87026372 5.43260132 -15 4 C-14.34 4.99 -13.68 5.98 -13 7 C-12.67 5.35 -12.34 3.7 -12 2 C-10.68 2.66 -9.36 3.32 -8 4 C-8 4.99 -8 5.98 -8 7 C-7.01 6.67 -6.02 6.34 -5 6 C-5.495 4.515 -5.495 4.515 -6 3 C-4.02 2.01 -2.04 1.02 0 0 Z " fill="#36639F" transform="translate(381,365)"/>
<path d="M0 0 C-1.32 1.32 -2.64 2.64 -4 4 C-3.01 4.495 -3.01 4.495 -2 5 C-2 4.34 -2 3.68 -2 3 C0.35438733 1.57055055 1.48032433 0.91338739 4.25 1.375 C4.8275 1.58125 5.405 1.7875 6 2 C3.25 6.875 3.25 6.875 1 8 C0.67 8.99 0.34 9.98 0 11 C-2.56087288 12.32407059 -5.01765119 13.44280191 -7.6875 14.5 C-8.46351563 14.80752197 -9.23953125 15.11504395 -10.0390625 15.43188477 C-31.32389597 23.62558451 -55.53724424 23.86634988 -76.8984375 15.55078125 C-80 14 -80 14 -81 11 C-81.99 10.67 -82.98 10.34 -84 10 C-84.33 8.35 -84.66 6.7 -85 5 C-84.34 5 -83.68 5 -83 5 C-84.32 3.35 -85.64 1.7 -87 0 C-84.13275314 0.57344937 -83.1385485 0.8614515 -81 3 C-80.34 2.01 -79.68 1.02 -79 0 C-77.35 0.33 -75.7 0.66 -74 1 C-75.98 1.99 -75.98 1.99 -78 3 C-78 3.66 -78 4.32 -78 5 C-77.01 5 -76.02 5 -75 5 C-74.34 3.35 -73.68 1.7 -73 0 C-72.34 0 -71.68 0 -71 0 C-71 0.66 -71 1.32 -71 2 C-70.443125 1.67 -69.88625 1.34 -69.3125 1 C-66.69715478 -0.1309601 -64.8193354 -0.15662974 -62 0 C-62 0.66 -62 1.32 -62 2 C-57.545 1.505 -57.545 1.505 -53 1 C-52.505 2.485 -52.505 2.485 -52 4 C-53.32 3.67 -54.64 3.34 -56 3 C-55.67 4.65 -55.34 6.3 -55 8 C-52.66475218 5.74259377 -50.81294927 3.7194239 -49 1 C-46.525 1.495 -46.525 1.495 -44 2 C-43.505 3.485 -43.505 3.485 -43 5 C-42.34 4.34 -41.68 3.68 -41 3 C-40.071875 3.495 -40.071875 3.495 -39.125 4 C-37.08981656 5.14193235 -37.08981656 5.14193235 -35 5 C-35 4.34 -35 3.68 -35 3 C-35.66 2.34 -36.32 1.68 -37 1 C-34.59314446 1.46799969 -32.22853817 1.93278289 -29.875 2.625 C-27.78552327 3.2041405 -27.78552327 3.2041405 -25 2 C-24.505 3.485 -24.505 3.485 -24 5 C-21.98491642 5.73323796 -21.98491642 5.73323796 -20 6 C-19.67 5.34 -19.34 4.68 -19 4 C-19.99 4 -20.98 4 -22 4 C-22 3.01 -22 2.02 -22 1 C-19.69 1.66 -17.38 2.32 -15 3 C-15 2.34 -15 1.68 -15 1 C-13.68 1.33 -12.36 1.66 -11 2 C-11.33 2.99 -11.66 3.98 -12 5 C-9.46326712 3.6446674 -9.46326712 3.6446674 -7 2 C-7 1.34 -7 0.68 -7 0 C-2.25 -1.125 -2.25 -1.125 0 0 Z " fill="#1B1F5C" transform="translate(457,453)"/>
<path d="M0 0 C0.495 0.99 0.495 0.99 1 2 C1.33 1.67 1.66 1.34 2 1 C2 0.67 2 0.34 2 0 C7.12203127 -0.2090625 11.10291818 0.58738024 16 2 C16.99 1.67 17.98 1.34 19 1 C19.495 1.99 19.495 1.99 20 3 C19.67 3.66 19.34 4.32 19 5 C19.66 5 20.32 5 21 5 C21.33 4.01 21.66 3.02 22 2 C26.18524749 1.91793632 29.91081136 2.15810822 34 3 C34.33 2.67 34.66 2.34 35 2 C37.33297433 1.95907063 39.66705225 1.95758277 42 2 C41.01 1.01 41.01 1.01 40 0 C41.45792884 -0.05399736 42.91642712 -0.09279177 44.375 -0.125 C45.18710937 -0.14820313 45.99921875 -0.17140625 46.8359375 -0.1953125 C49 0 49 0 51 2 C52.64991582 2.70710678 54.31562256 3.37943989 56 4 C55.505 3.01 55.505 3.01 55 2 C71 2 71 2 74 3 C72.4549289 7.28632628 69.20680284 9.49235837 65.6875 12.125 C65.11837891 12.56714844 64.54925781 13.00929688 63.96289062 13.46484375 C60.77817907 15.88537079 57.79961841 17.73108428 54 19 C54.495 17.515 54.495 17.515 55 16 C55.66 16 56.32 16 57 16 C57 14.68 57 13.36 57 12 C57.66 11.67 58.32 11.34 59 11 C58.01 11 57.02 11 56 11 C55.34 11.66 54.68 12.32 54 13 C53.01 12.505 53.01 12.505 52 12 C52 12.66 52 13.32 52 14 C50.35 14 48.7 14 47 14 C47.99 13.67 48.98 13.34 50 13 C50.33 12.01 50.66 11.02 51 10 C51.33 9.67 51.66 9.34 52 9 C50.35 9 48.7 9 47 9 C47.495 10.485 47.495 10.485 48 12 C46.02 12.66 44.04 13.32 42 14 C41.01 12.515 41.01 12.515 40 11 C39.34 11.66 38.68 12.32 38 13 C38 12.34 38 11.68 38 11 C36.02 10.67 34.04 10.34 32 10 C32 10.99 32 11.98 32 13 C32.99 13 33.98 13 35 13 C34.67 13.99 34.34 14.98 34 16 C31.53199953 14.84826645 29.95216435 13.95216435 28 12 C27.01 12.33 26.02 12.66 25 13 C22.3125 12.0625 22.3125 12.0625 20 11 C19.67 11.99 19.34 12.98 19 14 C17.0625 14.8125 17.0625 14.8125 15 15 C14.34 14.34 13.68 13.68 13 13 C12.34 14.32 11.68 15.64 11 17 C10 16 10 16 9.9375 13.4375 C9.958125 12.633125 9.97875 11.82875 10 11 C7.6704053 10.49758678 7.6704053 10.49758678 5 11 C2.78831775 13.94236782 2.78831775 13.94236782 1 17 C0.34 17 -0.32 17 -1 17 C-1.33 15.35 -1.66 13.7 -2 12 C-0.68 12.33 0.64 12.66 2 13 C1.505 12.01 1.505 12.01 1 11 C-1.97 11 -4.94 11 -8 11 C-8 10.34 -8 9.68 -8 9 C-8.63808594 9.15597656 -9.27617187 9.31195313 -9.93359375 9.47265625 C-10.75988281 9.66730469 -11.58617187 9.86195313 -12.4375 10.0625 C-13.26121094 10.25972656 -14.08492188 10.45695312 -14.93359375 10.66015625 C-15.95646484 10.82837891 -15.95646484 10.82837891 -17 11 C-17.33 10.67 -17.66 10.34 -18 10 C-18.66 11.65 -19.32 13.3 -20 15 C-21.32 14.67 -22.64 14.34 -24 14 C-24 13.34 -24 12.68 -24 12 C-23.34 11.67 -22.68 11.34 -22 11 C-22.66 11 -23.32 11 -24 11 C-24.66 11 -25.32 11 -26 11 C-26.33 11.99 -26.66 12.98 -27 14 C-27.66 13.34 -28.32 12.68 -29 12 C-29.33 14.31 -29.66 16.62 -30 19 C-28.68 19.33 -27.36 19.66 -26 20 C-26 20.66 -26 21.32 -26 22 C-32.4541049 20.07325986 -37.47062628 16.75997413 -43 13 C-44.01126953 12.34451172 -44.01126953 12.34451172 -45.04296875 11.67578125 C-46.6875 10.5 -46.6875 10.5 -49 8 C-49.375 4.1875 -49.375 4.1875 -49 1 C-45.625 0.375 -45.625 0.375 -42 0 C-40.66666667 1.33333333 -39.33333333 2.66666667 -38 4 C-37.34 3.34 -36.68 2.68 -36 2 C-36 2.99 -36 3.98 -36 5 C-35.34 4.01 -34.68 3.02 -34 2 C-31.04935852 1.7791436 -28.31631769 1.71939011 -25.375 1.8125 C-24.57320313 1.82603516 -23.77140625 1.83957031 -22.9453125 1.85351562 C-20.96325622 1.88890949 -18.98154449 1.94271766 -17 2 C-17 2.66 -17 3.32 -17 4 C-16.34 4 -15.68 4 -15 4 C-15 2.68 -15 1.36 -15 0 C-13.02 0 -11.04 0 -9 0 C-8.505 0.99 -8.505 0.99 -8 2 C-7.67 1.34 -7.34 0.68 -7 0 C-4.0262656 -1.09036928 -3.11592499 -1.03864166 0 0 Z " fill="#1F2967" transform="translate(403,444)"/>
<path d="M0 0 C3.00449806 0.38280049 5.24600407 1.58203535 7.80078125 3.15234375 C8.52410645 3.59433105 9.24743164 4.03631836 9.99267578 4.49169922 C10.75821777 4.96881348 11.52375977 5.44592773 12.3125 5.9375 C13.10124512 6.42750488 13.88999023 6.91750977 14.70263672 7.42236328 C16.33299943 8.43982735 17.96124183 9.46069644 19.58740234 10.48486328 C21.15594541 11.46992483 22.72898163 12.44788014 24.30712891 13.41748047 C26.42473088 14.71907427 28.52633016 16.04315675 30.625 17.375 C31.26993408 17.76679443 31.91486816 18.15858887 32.5793457 18.56225586 C35.3341994 20.34784432 36.83756311 21.33729736 37.63671875 24.59765625 C36.80991765 27.71718188 35.89434915 28.33325225 33.1875 30.0625 C31.84171875 30.93841797 31.84171875 30.93841797 30.46875 31.83203125 C29.31265767 32.55493971 28.15638646 33.27756213 27 34 C25.42642853 35.00287957 23.8535658 36.00687169 22.28125 37.01171875 C18.20499239 39.60769873 14.12480111 42.19661836 10.01318359 44.73632812 C8.39265334 45.75353217 6.80876068 46.82898126 5.23828125 47.921875 C2.39615205 49.2908587 0.99719653 48.72054254 -2 48 C-2.0505939 41.48554795 -2.08568856 34.97114632 -2.10986328 28.45654297 C-2.11993825 26.23907579 -2.13359859 24.02162195 -2.15087891 21.80419922 C-2.17506163 18.62203688 -2.18646797 15.44004976 -2.1953125 12.2578125 C-2.20563507 11.26194122 -2.21595764 10.26606995 -2.22659302 9.24002075 C-2.22674408 8.31921722 -2.22689514 7.3984137 -2.22705078 6.44970703 C-2.231492 5.6369632 -2.23593323 4.82421936 -2.24050903 3.98684692 C-2 2 -2 2 0 0 Z " fill="#FBFCFB" transform="translate(400,360)"/>
<path d="M0 0 C2 1 2 1 4 4 C6.55183404 5.20450304 6.55183404 5.20450304 9 6 C9.33 5.34 9.66 4.68 10 4 C7.69 3.67 5.38 3.34 3 3 C3.33 2.01 3.66 1.02 4 0 C8.17645661 -0.34803805 9.82586157 0.33781938 13 3 C14.31836295 3.69580267 15.64791086 4.37224433 17 5 C17.33 4.01 17.66 3.02 18 2 C19.32 3.32 20.64 4.64 22 6 C23.65 5.01 25.3 4.02 27 3 C27.66 3.99 28.32 4.98 29 6 C28.34 6 27.68 6 27 6 C27.66 7.32 28.32 8.64 29 10 C29.66 8.35 30.32 6.7 31 5 C31.99 5 32.98 5 34 5 C34.66 6.32 35.32 7.64 36 9 C36.33 8.67 36.66 8.34 37 8 C36.7525 7.0409375 36.7525 7.0409375 36.5 6.0625 C36 4 36 4 37 2 C39.64 2 42.28 2 45 2 C45.495 3.98 45.495 3.98 46 6 C47.32 6 48.64 6 50 6 C50.99 6.495 50.99 6.495 52 7 C52.3690205 24.85649203 52.3690205 24.85649203 50 33 C48 31.25 48 31.25 46 29 C46 27.68 46 26.36 46 25 C42.34683329 26.24976756 41.21934164 26.67098753 39 30 C38.95758277 27.66705225 38.95907063 25.33297433 39 23 C39.495 22.505 39.495 22.505 40 22 C38.68 22 37.36 22 36 22 C36.66 22.33 37.32 22.66 38 23 C38 23.66 38 24.32 38 25 C37.2575 24.690625 36.515 24.38125 35.75 24.0625 C33.49307824 23.1905075 31.3549847 22.52332993 29 22 C29 20.68 29 19.36 29 18 C28.0925 18.226875 27.185 18.45375 26.25 18.6875 C23 19 23 19 20.625 17.5625 C20.08875 17.046875 19.5525 16.53125 19 16 C18.01 16.66 17.02 17.32 16 18 C13.8614515 15.8614515 13.57344937 14.86724686 13 12 C13 13.65 13 15.3 13 17 C11.51965236 16.52449439 10.04074979 16.04448784 8.5625 15.5625 C7.73878906 15.29566406 6.91507812 15.02882813 6.06640625 14.75390625 C4 14 4 14 3 13 C0.32941149 12.85884839 -2.32432238 12.95752893 -5 13 C-4.360625 13.433125 -3.72125 13.86625 -3.0625 14.3125 C-1 16 -1 16 0 19 C-0.78375 18.835 -1.5675 18.67 -2.375 18.5 C-5.36741102 17.93001695 -6.97971148 17.9961959 -10 18.5625 C-13 19 -13 19 -15 18 C-15.99 18.33 -16.98 18.66 -18 19 C-18.33 18.34 -18.66 17.68 -19 17 C-18 14 -18 14 -15 12 C-14.27034634 9.43717258 -14.27034634 9.43717258 -14 7 C-13.01 7 -12.02 7 -11 7 C-10.67 6.34 -10.34 5.68 -10 5 C-9.34 4.67 -8.68 4.34 -8 4 C-7.34 3.34 -6.68 2.68 -6 2 C-6 2.99 -6 3.98 -6 5 C-4.68 4.67 -3.36 4.34 -2 4 C-1.67 4.66 -1.34 5.32 -1 6 C-0.67 4.02 -0.34 2.04 0 0 Z M29 3 C29.99 3.495 29.99 3.495 31 4 C30.01 4.495 30.01 4.495 29 5 C29 4.34 29 3.68 29 3 Z " fill="#36609C" transform="translate(451,375)"/>
<path d="M0 0 C0.99 0 1.98 0 3 0 C2.67 1.98 2.34 3.96 2 6 C3.32 6.33 4.64 6.66 6 7 C6 6.01 6 5.02 6 4 C7.32 4 8.64 4 10 4 C10.66 3.34 11.32 2.68 12 2 C14 4 14 4 14 7 C14.55429687 6.855625 15.10859375 6.71125 15.6796875 6.5625 C16.40414063 6.376875 17.12859375 6.19125 17.875 6 C18.59429687 5.814375 19.31359375 5.62875 20.0546875 5.4375 C22.43234835 4.90276503 24.55005284 5 27 5 C27 3.35 27 1.7 27 0 C28.32 0.66 29.64 1.32 31 2 C30.34 3.32 29.68 4.64 29 6 C33.95 6.99 33.95 6.99 39 8 C39.33 7.34 39.66 6.68 40 6 C43 4 43 4 46.1875 4.375 C47.115625 4.58125 48.04375 4.7875 49 5 C49 5.66 49 6.32 49 7 C50.32 7 51.64 7 53 7 C53.66 5.68 54.32 4.36 55 3 C55.99 3 56.98 3 58 3 C58.495 3.99 58.495 3.99 59 5 C59.66 5 60.32 5 61 5 C61 4.01 61 3.02 61 2 C64 3 64 3 67 5 C68.16148471 11.6521397 68.11334109 18.26250202 68 25 C67.67 25 67.34 25 67 25 C67 22.36 67 19.72 67 17 C63.41672247 15.99782936 63.41672247 15.99782936 60 17 C59.505 15.02 59.505 15.02 59 13 C56.69 13 54.38 13 52 13 C52 13.99 52 14.98 52 16 C52.66 16.66 53.32 17.32 54 18 C54 18.66 54 19.32 54 20 C51.13275314 19.42655063 50.1385485 19.1385485 48 17 C47.01 17.33 46.02 17.66 45 18 C44.26676204 20.01508358 44.26676204 20.01508358 44 22 C42.23537317 18.91190305 42 17.76687864 42 14 C38.72226496 14.75150023 38.72226496 14.75150023 37 18 C35.68 16.35 34.36 14.7 33 13 C32.67 13.66 32.34 14.32 32 15 C28.17902761 14.46930939 25.93828597 13.50298434 23 11 C22.67 11.33 22.34 11.66 22 12 C21.34 12 20.68 12 20 12 C21.98 12.66 23.96 13.32 26 14 C25.01 14.99 24.02 15.98 23 17 C21.68 16.34 20.36 15.68 19 15 C18.34 15.66 17.68 16.32 17 17 C16.67 16.01 16.34 15.02 16 14 C15.01 14.99 14.02 15.98 13 17 C13 16.01 13 15.02 13 14 C12.360625 14.185625 11.72125 14.37125 11.0625 14.5625 C10.381875 14.706875 9.70125 14.85125 9 15 C8.67 14.67 8.34 14.34 8 14 C7.67 14.66 7.34 15.32 7 16 C6.34 15.67 5.68 15.34 5 15 C4.34 16.32 3.68 17.64 3 19 C3 18.34 3 17.68 3 17 C2.21625 16.855625 1.4325 16.71125 0.625 16.5625 C-2 16 -2 16 -4 15 C-3.67 13.68 -3.34 12.36 -3 11 C-3.99 10.34 -4.98 9.68 -6 9 C-4.87952194 5.63856582 -3.50292817 4.42471166 -1 2 C-0.67 1.34 -0.34 0.68 0 0 Z M44 13 C44.33 13.66 44.66 14.32 45 15 C45.33 14.34 45.66 13.68 46 13 C45.34 13 44.68 13 44 13 Z " fill="#3B6CA8" transform="translate(436,365)"/>
<path d="M0 0 C0.495 0.99 0.495 0.99 1 2 C0.34 2 -0.32 2 -1 2 C-0.34 3.32 0.32 4.64 1 6 C3.31 6 5.62 6 8 6 C7.34 6.33 6.68 6.66 6 7 C6 7.99 6 8.98 6 10 C6.33 9.34 6.66 8.68 7 8 C9.56859699 6.49427073 12.05895149 5.49017475 15 5 C15.99 5.495 15.99 5.495 17 6 C17 8.97 17 11.94 17 15 C15.68 15 14.36 15 13 15 C11.55245745 16.44754255 11.44266439 18.03962913 11 20 C10.34 19.67 9.68 19.34 9 19 C8.375 16.9375 8.375 16.9375 8 15 C7.401875 15.185625 6.80375 15.37125 6.1875 15.5625 C4 16 4 16 1 15 C1 15.99 1 16.98 1 18 C0.01 18.495 0.01 18.495 -1 19 C-1.99 17.02 -2.98 15.04 -4 13 C-4 13.66 -4 14.32 -4 15 C-5.65 15 -7.3 15 -9 15 C-8.01 14.01 -7.02 13.02 -6 12 C-10.35011775 12.51177856 -13.97565677 13.30553969 -18 15 C-19.65919896 15.36871088 -21.3247643 15.71281674 -23 16 C-23.66 15.01 -24.32 14.02 -25 13 C-25.433125 13.928125 -25.433125 13.928125 -25.875 14.875 C-27 17 -27 17 -29 19 C-29.66 18.34 -30.32 17.68 -31 17 C-30.01 16.67 -29.02 16.34 -28 16 C-29.32 16 -30.64 16 -32 16 C-32.66 16 -33.32 16 -34 16 C-34 14.35 -34 12.7 -34 11 C-37.42578949 14.17539556 -37.42578949 14.17539556 -40 18 C-41.65 16.02 -43.3 14.04 -45 12 C-44.67 13.32 -44.34 14.64 -44 16 C-44.99 16.33 -45.98 16.66 -47 17 C-47.66 16.67 -48.32 16.34 -49 16 C-48.690625 16.8971875 -48.690625 16.8971875 -48.375 17.8125 C-48 20 -48 20 -50 23 C-50.66 22.67 -51.32 22.34 -52 22 C-52.18058842 17.39499532 -51.86634754 14.19928196 -50 10 C-50 9.01 -50 8.02 -50 7 C-48.68 7 -47.36 7 -46 7 C-46 5.35 -46 3.7 -46 2 C-45.67 3.32 -45.34 4.64 -45 6 C-44.34 6 -43.68 6 -43 6 C-43 4.35 -43 2.7 -43 1 C-40.5625 1.8125 -40.5625 1.8125 -38 3 C-37.67 3.99 -37.34 4.98 -37 6 C-36.01 6 -35.02 6 -34 6 C-33.67 5.34 -33.34 4.68 -33 4 C-31.35 4.66 -29.7 5.32 -28 6 C-27.67 5.01 -27.34 4.02 -27 3 C-26.01 3 -25.02 3 -24 3 C-23.67 3.99 -23.34 4.98 -23 6 C-18.87026372 5.43260132 -18.87026372 5.43260132 -15 4 C-14.34 4.99 -13.68 5.98 -13 7 C-12.67 5.35 -12.34 3.7 -12 2 C-10.68 2.66 -9.36 3.32 -8 4 C-8 4.99 -8 5.98 -8 7 C-7.01 6.67 -6.02 6.34 -5 6 C-5.495 4.515 -5.495 4.515 -6 3 C-4.02 2.01 -2.04 1.02 0 0 Z " fill="#3A6BA7" transform="translate(381,365)"/>
<path d="M0 0 C0.67506592 0.20520264 1.35013184 0.41040527 2.0456543 0.62182617 C5.64945443 1.78694401 8.50931293 3.06775212 11.375 5.5625 C8.82797384 6.83601308 7.9467055 6.36441925 5.25 5.625 C4.52554688 5.43035156 3.80109375 5.23570312 3.0546875 5.03515625 C2.50039063 4.87917969 1.94609375 4.72320312 1.375 4.5625 C1.87 6.5425 1.87 6.5425 2.375 8.5625 C1.385 8.5625 0.395 8.5625 -0.625 8.5625 C-0.625 7.5725 -0.625 6.5825 -0.625 5.5625 C-1.615 5.5625 -2.605 5.5625 -3.625 5.5625 C-3.625 4.9025 -3.625 4.2425 -3.625 3.5625 C-7.03774452 2.78244411 -10.12790697 2.47047124 -13.625 2.5625 C-15.29166667 2.5625 -16.95833333 2.5625 -18.625 2.5625 C-19.12 0.5825 -19.12 0.5825 -19.625 -1.4375 C-21.275 0.5425 -22.925 2.5225 -24.625 4.5625 C-23.965 4.8925 -23.305 5.2225 -22.625 5.5625 C-23.285 5.5625 -23.945 5.5625 -24.625 5.5625 C-24.625 6.2225 -24.625 6.8825 -24.625 7.5625 C-28.09 9.0475 -28.09 9.0475 -31.625 10.5625 C-31.625 8.9125 -31.625 7.2625 -31.625 5.5625 C-32.615 5.8925 -33.605 6.2225 -34.625 6.5625 C-34.625 7.5525 -34.625 8.5425 -34.625 9.5625 C-35.615 10.2225 -36.605 10.8825 -37.625 11.5625 C-38.285 10.2425 -38.945 8.9225 -39.625 7.5625 C-40.615 8.0575 -40.615 8.0575 -41.625 8.5625 C-42.27713292 10.58713255 -42.27713292 10.58713255 -42.625 12.5625 C-44.7769437 9.33458445 -44.82586443 8.27849191 -44.625 4.5625 C-45.615 4.2325 -46.605 3.9025 -47.625 3.5625 C-46.965 3.8925 -46.305 4.2225 -45.625 4.5625 C-46.285 6.2125 -46.945 7.8625 -47.625 9.5625 C-47.955 8.9025 -48.285 8.2425 -48.625 7.5625 C-49.285 7.2325 -49.945 6.9025 -50.625 6.5625 C-50.955 6.2325 -51.285 5.9025 -51.625 5.5625 C-51.625 6.8825 -51.625 8.2025 -51.625 9.5625 C-52.285 9.5625 -52.945 9.5625 -53.625 9.5625 C-53.955 10.2225 -54.285 10.8825 -54.625 11.5625 C-54.41875 11.005625 -54.2125 10.44875 -54 9.875 C-53.51804789 6.902962 -54.35934972 5.24270059 -55.625 2.5625 C-54.965 2.5625 -54.305 2.5625 -53.625 2.5625 C-53.955 1.5725 -54.285 0.5825 -54.625 -0.4375 C-35.96546323 -5.45757842 -18.63842271 -5.71180904 0 0 Z " fill="#56A6E0" transform="translate(441.625,298.4375)"/>
<path d="M0 0 C-0.33 0.66 -0.66 1.32 -1 2 C-0.07767578 2.03867187 -0.07767578 2.03867187 0.86328125 2.078125 C7.51559633 2.54495413 7.51559633 2.54495413 10.0625 4.9375 C11 7 11 7 11 9 C11.99 9.66 12.98 10.32 14 11 C12 14 12 14 10.125 14.625 C9.42375 14.74875 8.7225 14.8725 8 15 C7.2575 15.185625 6.515 15.37125 5.75 15.5625 C5.1725 15.706875 4.595 15.85125 4 16 C4 15.34 4 14.68 4 14 C3.34 14 2.68 14 2 14 C2 13.34 2 12.68 2 12 C1.34 12 0.68 12 0 12 C-0.33 12.99 -0.66 13.98 -1 15 C-1.99 14.67 -2.98 14.34 -4 14 C-4 13.34 -4 12.68 -4 12 C-4.66 12 -5.32 12 -6 12 C-6 12.66 -6 13.32 -6 14 C-6.5775 13.62875 -7.155 13.2575 -7.75 12.875 C-10 11.70833333 -10 11.70833333 -12.25 12.875 C-13.11625 13.431875 -13.11625 13.431875 -14 14 C-13.67 14.99 -13.34 15.98 -13 17 C-13.33 17.66 -13.66 18.32 -14 19 C-13.34 19.33 -12.68 19.66 -12 20 C-11.67 20.66 -11.34 21.32 -11 22 C-11.66 22.66 -12.32 23.32 -13 24 C-18.10642424 16.36036269 -21.12807205 10.29437195 -21 1 C-20.34 1 -19.68 1 -19 1 C-19 1.99 -19 2.98 -19 4 C-17.02463255 3.65213292 -17.02463255 3.65213292 -15 3 C-14.67 2.34 -14.34 1.68 -14 1 C-11.03 1.495 -11.03 1.495 -8 2 C-7.67 1.34 -7.34 0.68 -7 0 C-3.86650268 -1.04449911 -3.01031744 -0.93423645 0 0 Z " fill="#2A4482" transform="translate(353,413)"/>
<path d="M0 0 C0.33 0 0.66 0 1 0 C0.98839844 0.76441406 0.97679687 1.52882813 0.96484375 2.31640625 C0.89227265 10.93163293 1.33511636 19.41587725 2 28 C3.4540625 27.7525 3.4540625 27.7525 4.9375 27.5 C8.67123288 26.89041096 8.67123288 26.89041096 12 28 C12.33 28.66 12.66 29.32 13 30 C14.11375 29.5359375 14.11375 29.5359375 15.25 29.0625 C17.50692176 28.1905075 19.6450153 27.52332993 22 27 C20.68 26.01 19.36 25.02 18 24 C20.3125 23.375 20.3125 23.375 23 23 C23.99 23.66 24.98 24.32 26 25 C25.34 25 24.68 25 24 25 C24 26.98 24 28.96 24 31 C24.66 31 25.32 31 26 31 C26 31.99 26 32.98 26 34 C25.01 34 24.02 34 23 34 C22.855625 35.093125 22.71125 36.18625 22.5625 37.3125 C22 41 22 41 21 44 C20.01 44 19.02 44 18 44 C17.67 41.03 17.34 38.06 17 35 C15.741875 34.979375 14.48375 34.95875 13.1875 34.9375 C12.47980469 34.92589844 11.77210938 34.91429687 11.04296875 34.90234375 C8.79694539 34.91736783 8.79694539 34.91736783 6 36 C6.165 36.78375 6.33 37.5675 6.5 38.375 C7 41 7 41 7 43 C7.99 43 8.98 43 10 43 C10.33 42.34 10.66 41.68 11 41 C10.125 45.75 10.125 45.75 9 48 C8.34 48 7.68 48 7 48 C7.33 50.97 7.66 53.94 8 57 C5.46436265 53.95145595 4.16308789 51.13611587 2.9375 47.375 C2.61652344 46.41335938 2.29554688 45.45171875 1.96484375 44.4609375 C-0.50298987 35.6087084 -1.29157338 27.44132242 -1.1875 18.25 C-1.1865332 16.60451172 -1.1865332 16.60451172 -1.18554688 14.92578125 C-1.1576807 9.81698256 -0.93245698 5.03573276 0 0 Z " fill="#325894" transform="translate(325,366)"/>
<path d="M0 0 C0.66 0 1.32 0 2 0 C2.29390625 1.32837891 2.29390625 1.32837891 2.59375 2.68359375 C8.15673476 25.72681941 19.93476324 42.89769196 37 59 C36.01 59.495 36.01 59.495 35 60 C32.67261379 58.74423779 30.51448929 57.45063195 28.3125 56 C27.67691162 55.58355225 27.04132324 55.16710449 26.38647461 54.73803711 C13.10806953 45.84997621 4.76264514 33.01409197 0.6875 17.5625 C-0.45407476 11.77994375 -0.16315602 5.86455252 0 0 Z " fill="#203C61" transform="translate(311,405)"/>
<path d="M0 0 C0.67506592 0.20520264 1.35013184 0.41040527 2.0456543 0.62182617 C5.64945443 1.78694401 8.50931293 3.06775212 11.375 5.5625 C8.82797384 6.83601308 7.9467055 6.36441925 5.25 5.625 C4.52554688 5.43035156 3.80109375 5.23570312 3.0546875 5.03515625 C2.50039063 4.87917969 1.94609375 4.72320312 1.375 4.5625 C1.87 6.5425 1.87 6.5425 2.375 8.5625 C1.385 8.5625 0.395 8.5625 -0.625 8.5625 C-0.625 7.5725 -0.625 6.5825 -0.625 5.5625 C-1.615 5.5625 -2.605 5.5625 -3.625 5.5625 C-3.625 4.9025 -3.625 4.2425 -3.625 3.5625 C-7.03774452 2.78244411 -10.12790697 2.47047124 -13.625 2.5625 C-15.29166667 2.5625 -16.95833333 2.5625 -18.625 2.5625 C-18.955 1.2425 -19.285 -0.0775 -19.625 -1.4375 C-22.15088702 0.92542656 -23.51320837 2.22712511 -24.625 5.5625 C-25.95833333 4.89583333 -27.29166667 4.22916667 -28.625 3.5625 C-28.625 2.9025 -28.625 2.2425 -28.625 1.5625 C-31.265 2.2225 -33.905 2.8825 -36.625 3.5625 C-36.625 2.9025 -36.625 2.2425 -36.625 1.5625 C-35.965 1.5625 -35.305 1.5625 -34.625 1.5625 C-34.295 0.5725 -33.965 -0.4175 -33.625 -1.4375 C-36.595 -1.7675 -39.565 -2.0975 -42.625 -2.4375 C-42.625 -2.7675 -42.625 -3.0975 -42.625 -3.4375 C-27.97284282 -5.35909438 -14.16181037 -4.33993572 0 0 Z " fill="#64AEDF" transform="translate(441.625,298.4375)"/>
<path d="M0 0 C0.33 0 0.66 0 1 0 C0.98839844 0.70640625 0.97679687 1.4128125 0.96484375 2.140625 C0.87416775 12.4517812 1.42536419 22.70786223 2 33 C3.98 33 5.96 33 8 33 C7.01 33.66 6.02 34.32 5 35 C5.495 35.86625 5.495 35.86625 6 36.75 C7 39 7 39 7 43 C7.99 43 8.98 43 10 43 C10.33 42.34 10.66 41.68 11 41 C10.125 45.75 10.125 45.75 9 48 C8.34 48 7.68 48 7 48 C7.33 50.97 7.66 53.94 8 57 C5.46436265 53.95145595 4.16308789 51.13611587 2.9375 47.375 C2.61652344 46.41335938 2.29554688 45.45171875 1.96484375 44.4609375 C-0.50298987 35.6087084 -1.29157338 27.44132242 -1.1875 18.25 C-1.1865332 16.60451172 -1.1865332 16.60451172 -1.18554688 14.92578125 C-1.1576807 9.81698256 -0.93245698 5.03573276 0 0 Z " fill="#425B83" transform="translate(325,366)"/>
<path d="M0 0 C0 0.66 0 1.32 0 2 C-0.66 2 -1.32 2 -2 2 C-2.0928125 2.86625 -2.0928125 2.86625 -2.1875 3.75 C-3.3224773 6.89301406 -5.37371606 7.99902176 -8 10 C-8.680625 11.0209375 -8.680625 11.0209375 -9.375 12.0625 C-12.45150205 15.73063706 -17.39902283 17.07980457 -22 18 C-21.67 17.34 -21.34 16.68 -21 16 C-21.66 15.34 -22.32 14.68 -23 14 C-4.97385621 0 -4.97385621 0 0 0 Z " fill="#54A1DA" transform="translate(376,303)"/>
<path d="M0 0 C0.99 0.66 1.98 1.32 3 2 C4.32 1.34 5.64 0.68 7 0 C8.5 1.1875 8.5 1.1875 10 3 C10.1875 5.6875 10.1875 5.6875 10 8 C7.69 8.33 5.38 8.66 3 9 C3.33 9.99 3.66 10.98 4 12 C2.02 12.99 2.02 12.99 0 14 C-1.5625 12.4375 -1.5625 12.4375 -3 10 C-2.77861795 5.79374114 -2.34955038 3.52432557 0 0 Z " fill="#3C74AE" transform="translate(328,363)"/>
<path d="M0 0 C0.66 1.65 1.32 3.3 2 5 C0.1875 6.0625 0.1875 6.0625 -2 7 C-2.99 6.67 -3.98 6.34 -5 6 C-4.34 6.33 -3.68 6.66 -3 7 C-3.66 8.65 -4.32 10.3 -5 12 C-5.33 11.34 -5.66 10.68 -6 10 C-6.66 9.67 -7.32 9.34 -8 9 C-8.33 8.67 -8.66 8.34 -9 8 C-9 9.32 -9 10.64 -9 12 C-9.66 12 -10.32 12 -11 12 C-11.33 12.66 -11.66 13.32 -12 14 C-11.79375 13.443125 -11.5875 12.88625 -11.375 12.3125 C-10.89304789 9.340462 -11.73434972 7.68020059 -13 5 C-12.34 5 -11.68 5 -11 5 C-11.33 4.01 -11.66 3.02 -12 2 C-7.8803623 0.70756464 -4.33168317 -0.26252625 0 0 Z " fill="#5DA8DC" transform="translate(399,296)"/>
<path d="M0 0 C0.99 0.33 1.98 0.66 3 1 C2.01 1.495 2.01 1.495 1 2 C1.350625 3.051875 1.70125 4.10375 2.0625 5.1875 C2.94748601 8.7864431 3.21324906 10.56246098 2 14 C1.01 14.495 1.01 14.495 0 15 C0.01047363 15.9286084 0.02094727 16.8572168 0.03173828 17.81396484 C0.06579204 21.2542569 0.09088493 24.69437027 0.10986328 28.13476562 C0.11993043 29.6247032 0.13358518 31.11462097 0.15087891 32.60449219 C0.17509653 34.74419028 0.18647564 36.88362753 0.1953125 39.0234375 C0.20578613 40.31169434 0.21625977 41.59995117 0.22705078 42.92724609 C0 46 0 46 -2 48 C-2.0505939 41.48554795 -2.08568856 34.97114632 -2.10986328 28.45654297 C-2.11993825 26.23907579 -2.13359859 24.02162195 -2.15087891 21.80419922 C-2.17506163 18.62203688 -2.18646797 15.44004976 -2.1953125 12.2578125 C-2.20563507 11.26194122 -2.21595764 10.26606995 -2.22659302 9.24002075 C-2.22674408 8.31921722 -2.22689514 7.3984137 -2.22705078 6.44970703 C-2.231492 5.6369632 -2.23593323 4.82421936 -2.24050903 3.98684692 C-2 2 -2 2 0 0 Z " fill="#EEF3F6" transform="translate(400,360)"/>
<path d="M0 0 C2 3 2 3 2 5 C1.01 5.66 0.02 6.32 -1 7 C-1.25030977 9.58380177 -1.25030977 9.58380177 -1 12 C-0.34 12.33 0.32 12.66 1 13 C0.45276317 16.37462715 -0.0549 18.08235 -2 21 C-4.625 21.1875 -4.625 21.1875 -7 21 C-7.33 22.65 -7.66 24.3 -8 26 C-10.28448668 19.73991311 -6.23487835 12.68603482 -3.6171875 6.9921875 C-2.44513815 4.64139138 -1.247734 2.3113761 0 0 Z M-3 13 C-2 15 -2 15 -2 15 Z " fill="#4F7FAC" transform="translate(335,340)"/>
<path d="M0 0 C0.66 0 1.32 0 2 0 C2 0.99 2 1.98 2 3 C2.66 3.33 3.32 3.66 4 4 C6 5 6 5 6.6875 6.9375 C7 9 7 9 6 11 C5.34 11 4.68 11 4 11 C4 11.99 4 12.98 4 14 C5.32 13.67 6.64 13.34 8 13 C7.67 14.65 7.34 16.3 7 18 C7.66 18.33 8.32 18.66 9 19 C9.33 19.66 9.66 20.32 10 21 C9.34 21.66 8.68 22.32 8 23 C2.89357576 15.36036269 -0.12807205 9.29437195 0 0 Z " fill="#2F4683" transform="translate(332,414)"/>
<path d="M0 0 C0.82810826 3.31243305 1.09278428 5.65976579 1 9 C-3.01804691 9.84098656 -6.01803543 10.05404945 -10 9 C-10 9.66 -10 10.32 -10 11 C-10.66 11 -11.32 11 -12 11 C-12.33 10.01 -12.66 9.02 -13 8 C-8.71 5.36 -4.42 2.72 0 0 Z " fill="#3D6195" transform="translate(430,391)"/>
<path d="M0 0 C0 0.66 0 1.32 0 2 C-0.66 2 -1.32 2 -2 2 C-2.061875 2.598125 -2.12375 3.19625 -2.1875 3.8125 C-3.33554682 6.90339529 -5.10547052 7.5880344 -8 9 C-8.66 9 -9.32 9 -10 9 C-10 8.34 -10 7.68 -10 7 C-10.66 6.67 -11.32 6.34 -12 6 C-10.37829621 4.99466333 -8.75252763 3.99588093 -7.125 3 C-5.76761719 2.1646875 -5.76761719 2.1646875 -4.3828125 1.3125 C-2 0 -2 0 0 0 Z " fill="#63A7D5" transform="translate(376,303)"/>
<path d="M0 0 C0.66 1.65 1.32 3.3 2 5 C0.02 5.99 0.02 5.99 -2 7 C-3.32 6.01 -4.64 5.02 -6 4 C-5.01 4 -4.02 4 -3 4 C-3 3.34 -3 2.68 -3 2 C-3.61875 2.20625 -4.2375 2.4125 -4.875 2.625 C-5.57625 2.74875 -6.2775 2.8725 -7 3 C-7.66 2.34 -8.32 1.68 -9 1 C-5.92677456 0.08941469 -3.19902639 -0.08886184 0 0 Z " fill="#6AB0DD" transform="translate(399,296)"/>
<path d="M0 0 C0.33 0.66 0.66 1.32 1 2 C2.32907873 2.34991232 3.66343315 2.67987822 5 3 C6.60590715 3.81092994 8.18941006 4.66745577 9.75 5.5625 C10.94882812 6.24505859 10.94882812 6.24505859 12.171875 6.94140625 C12.77515625 7.29074219 13.3784375 7.64007813 14 8 C14 8.66 14 9.32 14 10 C8.03347646 8.42986223 3.17090975 5.24970218 -2 2 C-1.34 1.34 -0.68 0.68 0 0 Z " fill="#282E5B" transform="translate(363,456)"/>
<path d="M0 0 C-0.53069061 3.82097239 -1.49701566 6.06171403 -4 9 C-4.99 7.68 -5.98 6.36 -7 5 C-5.22678182 1.07358831 -4.52021524 0 0 0 Z " fill="#334B85" transform="translate(497,417)"/>
<path d="M0 0 C-0.66 0 -1.32 0 -2 0 C-2 0.66 -2 1.32 -2 2 C-3.98 2.99 -3.98 2.99 -6 4 C-6 4.99 -6 5.98 -6 7 C-7.32 7.33 -8.64 7.66 -10 8 C-10 7.01 -10 6.02 -10 5 C-10.33 4.01 -10.66 3.02 -11 2 C-9.73392393 1.46770674 -8.46189588 0.94955456 -7.1875 0.4375 C-6.47980469 0.14746094 -5.77210938 -0.14257812 -5.04296875 -0.44140625 C-3 -1 -3 -1 0 0 Z " fill="#6AACD7" transform="translate(387,300)"/>
<path d="M0 0 C0.99 0.495 0.99 0.495 2 1 C2 2.32 2 3.64 2 5 C3.32 4.67 4.64 4.34 6 4 C5.67 5.65 5.34 7.3 5 9 C5.66 9.33 6.32 9.66 7 10 C7.33 10.66 7.66 11.32 8 12 C7.34 12.66 6.68 13.32 6 14 C4.98915735 12.42356682 3.99169489 10.8385483 3 9.25 C2.443125 8.36828125 1.88625 7.4865625 1.3125 6.578125 C0 4 0 4 0 0 Z " fill="#34446F" transform="translate(334,423)"/>
<path d="M0 0 C0.66 0.99 1.32 1.98 2 3 C4.58380177 3.25030977 4.58380177 3.25030977 7 3 C6.67 4.32 6.34 5.64 6 7 C5.01 7 4.02 7 3 7 C3 6.34 3 5.68 3 5 C2.01 5 1.02 5 0 5 C-0.33 5.66 -0.66 6.32 -1 7 C-1.66 7 -2.32 7 -3 7 C-2.38722388 4.03824877 -1.74627478 2.61941217 0 0 Z " fill="#2C4684" transform="translate(460,418)"/>
<path d="M0 0 C0.94875 0.04125 1.8975 0.0825 2.875 0.125 C3.205 1.115 3.535 2.105 3.875 3.125 C-1.57 4.61 -1.57 4.61 -7.125 6.125 C-7.125 5.465 -7.125 4.805 -7.125 4.125 C-6.465 4.125 -5.805 4.125 -5.125 4.125 C-5.125 3.465 -5.125 2.805 -5.125 2.125 C-3.125 0.125 -3.125 0.125 0 0 Z " fill="#63AFE3" transform="translate(412.125,295.875)"/>
<path d="M0 0 C0.33 0.99 0.66 1.98 1 3 C0.67 3.66 0.34 4.32 0 5 C0.66 5.33 1.32 5.66 2 6 C0.1875 7.5625 0.1875 7.5625 -2 9 C-2.99 8.67 -3.98 8.34 -5 8 C-4.67 7.67 -4.34 7.34 -4 7 C-4.66 6.34 -5.32 5.68 -6 5 C-4.02 3.35 -2.04 1.7 0 0 Z " fill="#60A2D2" transform="translate(359,312)"/>
<path d="M0 0 C1.41750563 0.11509661 2.83401169 0.24253658 4.25 0.375 C5.03890625 0.44460938 5.8278125 0.51421875 6.640625 0.5859375 C9.085877 1.01507113 10.84836903 1.78600638 13 3 C12.01 3.33 11.02 3.66 10 4 C10 4.66 10 5.32 10 6 C5.25 4.125 5.25 4.125 3 3 C3 2.34 3 1.68 3 1 C2.01 0.67 1.02 0.34 0 0 Z " fill="#6DB2DE" transform="translate(428,296)"/>
<path d="M0 0 C2.56687367 3.8503105 1.83288724 5.58569763 1 10 C0.67 9.01 0.34 8.02 0 7 C-0.66 7 -1.32 7 -2 7 C-2.33 7.66 -2.66 8.32 -3 9 C-2.67 7.68 -2.34 6.36 -2 5 C-2.99 4.34 -3.98 3.68 -5 3 C-3.35 2.01 -1.7 1.02 0 0 Z " fill="#385B91" transform="translate(416,400)"/>
<path d="M0 0 C1.42944945 2.35438733 2.08661261 3.48032433 1.625 6.25 C1.41875 6.8275 1.2125 7.405 1 8 C-1.64 8 -4.28 8 -7 8 C-7 7.34 -7 6.68 -7 6 C-5.5459375 5.62875 -5.5459375 5.62875 -4.0625 5.25 C-2.5465625 4.63125 -2.5465625 4.63125 -1 4 C-0.03122943 1.96756452 -0.03122943 1.96756452 0 0 Z " fill="#4882B8" transform="translate(499,357)"/>
<path d="M0 0 C2 3 2 3 2 5 C1.01 5.66 0.02 6.32 -1 7 C-1.72965366 9.56282742 -1.72965366 9.56282742 -2 12 C-2.99 12 -3.98 12 -5 12 C-4.54738642 10.56068883 -4.08767021 9.12361001 -3.625 7.6875 C-3.24214844 6.48673828 -3.24214844 6.48673828 -2.8515625 5.26171875 C-2 3 -2 3 0 0 Z " fill="#5D85A7" transform="translate(335,340)"/>
<path d="M0 0 C4.38889325 0.66498383 7.9811485 2.18757677 12 4 C11.34 4.66 10.68 5.32 10 6 C7.18169386 5.84734175 4.59370731 5.09902852 2 4 C0.5 1.875 0.5 1.875 0 0 Z " fill="#66AFE0" transform="translate(441,299)"/>
<path d="M0 0 C1.32 0 2.64 0 4 0 C5.35439668 2.70879335 5.06501451 5.00933268 5 8 C2.5 5.6875 2.5 5.6875 0 3 C0 2.01 0 1.02 0 0 Z " fill="#2D3B69" transform="translate(341,435)"/>
<path d="M0 0 C2.54384726 1.27192363 2.69368156 2.19948469 3.6875 4.8125 C3.95949219 5.49957031 4.23148437 6.18664062 4.51171875 6.89453125 C5.06812731 9.29376496 4.77364938 10.6894364 4 13 C3.32404685 11.58774074 2.65959941 10.16997095 2 8.75 C1.62875 7.96109375 1.2575 7.1721875 0.875 6.359375 C0 4 0 4 0 0 Z " fill="#415270" transform="translate(328,410)"/>
<path d="M0 0 C0 2.97 0 5.94 0 9 C-0.66 8.01 -1.32 7.02 -2 6 C-2.66 6.66 -3.32 7.32 -4 8 C-4.1875 5.125 -4.1875 5.125 -4 2 C-1 0 -1 0 0 0 Z " fill="#4C6699" transform="translate(503,390)"/>
</svg>
