<svg width="41" height="41" viewBox="0 0 41 41" fill="none" xmlns="http://www.w3.org/2000/svg">
<path d="M31.4932 5.23591H9.50692C8.37422 5.23591 7.28792 5.68587 6.48698 6.48681C5.68605 7.28774 5.23608 8.37405 5.23608 9.50674V24.6597C5.23608 25.7924 5.68605 26.8787 6.48698 27.6796C7.28792 28.4805 8.37422 28.9305 9.50692 28.9305H14.4782L13.8461 34.0555H11.9584C11.7318 34.0555 11.5146 34.1455 11.3544 34.3057C11.1942 34.4659 11.1042 34.6831 11.1042 34.9097C11.1042 35.1362 11.1942 35.3535 11.3544 35.5136C11.5146 35.6738 11.7318 35.7638 11.9584 35.7638H29.0588C29.2853 35.7638 29.5026 35.6738 29.6628 35.5136C29.823 35.3535 29.913 35.1362 29.913 34.9097C29.913 34.6831 29.823 34.4659 29.6628 34.3057C29.5026 34.1455 29.2853 34.0555 29.0588 34.0555H27.1625L26.5305 28.9305H31.5017C32.6344 28.9305 33.7207 28.4805 34.5216 27.6796C35.3226 26.8787 35.7725 25.7924 35.7725 24.6597V9.50674C35.7725 8.94517 35.6618 8.38911 35.4466 7.87039C35.2315 7.35167 34.9161 6.88048 34.5186 6.48378C34.1211 6.08709 33.6493 5.77268 33.1302 5.55855C32.611 5.34443 32.0547 5.23479 31.4932 5.23591ZM15.5544 34.0555L16.2036 28.9305H24.7965L25.4286 34.0555H15.5544ZM34.0557 24.6597C34.0557 25.3393 33.7857 25.9911 33.3051 26.4716C32.8246 26.9522 32.1728 27.2222 31.4932 27.2222H9.50692C8.8273 27.2222 8.17552 26.9522 7.69496 26.4716C7.21439 25.9911 6.94442 25.3393 6.94442 24.6597V23.8055H34.0557V24.6597ZM34.0557 22.0972H6.94442V9.50674C6.94442 8.82713 7.21439 8.17534 7.69496 7.69478C8.17552 7.21422 8.8273 6.94424 9.50692 6.94424H31.4932C32.1728 6.94424 32.8246 7.21422 33.3051 7.69478C33.7857 8.17534 34.0557 8.82713 34.0557 9.50674V22.0972Z" fill="white"/>
</svg>
