<svg width="15" height="15" viewBox="0 0 33 32" fill="none" xmlns="http://www.w3.org/2000/svg">
<path d="M10.3896 19.5595L20.7395 15.3584L18.0532 21.7155C17.8385 22.2236 18.0792 22.8166 18.5873 23.0312C18.7079 23.0823 18.8374 23.1092 18.9683 23.1102C19.0993 23.1112 19.2292 23.0863 19.3505 23.0371C19.4719 22.9878 19.5823 22.9151 19.6755 22.8231C19.7688 22.7311 19.8429 22.6216 19.8938 22.5009L23.5213 13.9162C23.5724 13.7957 23.5993 13.6662 23.6003 13.5352C23.6013 13.4042 23.5764 13.2744 23.5272 13.153C23.4779 13.0317 23.4052 12.9212 23.3132 12.828C23.2212 12.7348 23.1117 12.6606 22.991 12.6098L14.4063 8.98219C14.2857 8.93123 14.1563 8.90452 14.0253 8.90359C13.8944 8.90266 13.7646 8.92753 13.6433 8.97677C13.5219 9.02602 13.4115 9.09867 13.3183 9.1906C13.225 9.28252 13.1508 9.3919 13.0999 9.51251C13.0489 9.63311 13.0222 9.76257 13.0213 9.8935C13.0203 10.0244 13.0452 10.1543 13.0944 10.2756C13.1437 10.3969 13.2163 10.5073 13.3083 10.6006C13.4002 10.6938 13.5096 10.768 13.6302 10.819L19.9873 13.5053L9.63743 17.7064C9.12781 17.9133 8.8801 18.4995 9.08696 19.0091C9.29382 19.5187 9.88003 19.7664 10.3896 19.5595Z" fill="#141414"/>
</svg>
