<svg width="40" height="40" viewBox="0 0 40 40" fill="none" xmlns="http://www.w3.org/2000/svg">
<path d="M10.5701 16.23C11.3001 16.97 11.7251 17.9375 11.9876 18.905C12.5001 20.785 12.5001 23.11 12.5001 24.9075V25C12.5001 30.145 11.5376 33.2 10.4476 35.0175C10.0346 35.7323 9.49397 36.3653 8.85258 36.885C8.59744 37.0825 8.32066 37.2502 8.02758 37.385C8.02758 37.385 7.71008 37.5 7.50008 37.5C7.31985 37.4857 7.1424 37.447 6.97258 37.385C6.67949 37.2502 6.40271 37.0825 6.14758 36.885C5.50618 36.3653 4.96557 35.7323 4.55258 35.0175C3.46258 33.2025 2.50008 30.145 2.50008 25V24.91C2.50008 23.11 2.50008 20.7875 3.01258 18.9025C3.27508 17.9375 3.70008 16.97 4.43008 16.2275C3.25008 15.11 2.50008 13.33 2.50008 11.25C2.50008 10.435 2.71758 9.46253 3.01758 8.56503C3.31758 7.66753 3.73758 6.73503 4.22258 5.98503C4.80008 5.01003 5.61258 4.19253 6.24258 3.64253C6.58924 3.34029 6.94962 3.05416 7.32258 2.78503L7.39758 2.73503L7.42008 2.71753L7.42758 2.71253L7.43258 2.71003C7.6619 2.55396 7.93663 2.4786 8.21349 2.49582C8.49036 2.51305 8.75362 2.62187 8.96184 2.80517C9.17005 2.98847 9.31138 3.23581 9.36356 3.50826C9.41575 3.78071 9.37582 4.06277 9.25008 4.31003C9.22812 4.38214 9.21717 4.45715 9.21758 4.53253C9.21758 4.69003 9.25758 4.99003 9.63508 5.36503C9.81758 5.54753 9.95758 5.67753 10.1101 5.82003C10.2351 5.93503 10.3676 6.05503 10.5351 6.22003C10.8601 6.53003 11.2026 6.89503 11.5101 7.35253C12.1476 8.31003 12.5001 9.50753 12.5001 11.25C12.5001 13.33 11.7501 15.1075 10.5701 16.23ZM7.50008 17.5C6.87508 17.5 6.50008 17.695 6.21758 17.975C5.90258 18.2925 5.63008 18.8075 5.42508 19.56C5.01008 21.0875 5.00008 23.0925 5.00008 25C5.00008 29.855 5.91258 32.425 6.69758 33.7325C6.99758 34.2325 7.28008 34.555 7.50008 34.7575C7.81584 34.4566 8.08617 34.1113 8.30258 33.7325C9.08758 32.4225 10.0001 29.855 10.0001 25C10.0001 23.0925 9.99008 21.0875 9.57508 19.56C9.37008 18.81 9.09758 18.2925 8.78258 17.975C8.50008 17.695 8.12258 17.5 7.50008 17.5ZM5.00008 11.25C5.00008 13.93 6.53758 15 7.50008 15C8.46258 15 10.0001 13.93 10.0001 11.25C10.0001 9.86753 9.72758 9.19003 9.42758 8.74003C9.24468 8.47758 9.03433 8.23538 8.80008 8.01753L8.49008 7.72753C8.27836 7.53364 8.06999 7.33611 7.86508 7.13503C7.59236 6.86383 7.35772 6.55686 7.16758 6.22253C6.84946 6.55723 6.56942 6.92615 6.33258 7.32253C5.98258 7.86003 5.64258 8.59753 5.39008 9.35753C5.13008 10.1325 5.00008 10.8175 5.00008 11.25ZM17.4951 27.4325C16.6285 27.3358 15.7761 27.1386 14.9551 26.845C14.9851 26.2184 15.0001 25.57 15.0001 24.9V24.16C15.7751 24.5275 16.6151 24.785 17.4951 24.91V20C17.4951 18.674 18.0219 17.4022 18.9595 16.4645C19.8972 15.5268 21.169 15 22.4951 15H27.4076C27.2087 13.6178 26.6819 12.3032 25.8712 11.1661C25.0604 10.0291 23.9893 9.10256 22.7473 8.46407C21.5053 7.82558 20.1286 7.49363 18.7321 7.49598C17.3356 7.49832 15.9599 7.83488 14.7201 8.47753C14.5237 7.66022 14.1997 6.87897 13.7601 6.16253C15.3804 5.36174 17.1698 4.96314 18.9768 5.00046C20.7838 5.03778 22.5552 5.50993 24.1411 6.37693C25.727 7.24394 27.0806 8.48028 28.0874 9.98129C29.0942 11.4823 29.7246 13.2038 29.9251 15H32.4926C33.8187 15 35.0904 15.5268 36.0281 16.4645C36.9658 17.4022 37.4926 18.674 37.4926 20V30C37.4926 31.3261 36.9658 32.5979 36.0281 33.5356C35.0904 34.4732 33.8187 35 32.4926 35H22.4926C21.1665 35 19.8947 34.4732 18.957 33.5356C18.0194 32.5979 17.4926 31.3261 17.4926 30L17.4951 27.4325ZM29.9276 17.5C29.6444 20.0369 28.5069 22.402 26.702 24.2069C24.897 26.0119 22.5319 27.1494 19.9951 27.4325V30C19.9951 30.6631 20.2585 31.299 20.7273 31.7678C21.1962 32.2366 21.832 32.5 22.4951 32.5H32.4951C33.1581 32.5 33.794 32.2366 34.2628 31.7678C34.7317 31.299 34.9951 30.6631 34.9951 30V20C34.9951 19.337 34.7317 18.7011 34.2628 18.2323C33.794 17.7634 33.1581 17.5 32.4951 17.5H29.9276ZM27.4076 17.5H22.4951C21.832 17.5 21.1962 17.7634 20.7273 18.2323C20.2585 18.7011 19.9951 19.337 19.9951 20V24.9125C21.8653 24.643 23.5981 23.7753 24.9342 22.4392C26.2704 21.103 27.1381 19.3703 27.4076 17.5Z" fill="white"/>
</svg>
