<svg width="40" height="40" viewBox="0 0 40 40" fill="none" xmlns="http://www.w3.org/2000/svg">
<rect width="40" height="40" rx="20" fill="white"/>
<path d="M11 19C11 15.229 11 13.343 12.172 12.172C13.344 11.001 15.229 11 19 11H21C24.771 11 26.657 11 27.828 12.172C28.999 13.344 29 15.229 29 19V21C29 24.771 29 26.657 27.828 27.828C26.656 28.999 24.771 29 21 29H19C15.229 29 13.343 29 12.172 27.828C11.001 26.656 11 24.771 11 21V19Z" stroke="#141414" stroke-width="2"/>
<path d="M24.5 17C25.3284 17 26 16.3284 26 15.5C26 14.6716 25.3284 14 24.5 14C23.6716 14 23 14.6716 23 15.5C23 16.3284 23.6716 17 24.5 17Z" fill="#141414"/>
<path d="M20 23C21.6569 23 23 21.6569 23 20C23 18.3431 21.6569 17 20 17C18.3431 17 17 18.3431 17 20C17 21.6569 18.3431 23 20 23Z" stroke="#141414" stroke-width="2"/>
</svg>
