<svg width="40" height="40" viewBox="0 0 40 40" fill="none" xmlns="http://www.w3.org/2000/svg">
<rect width="40" height="40" rx="20" fill="white"/>
<path d="M12.75 9.875C12.1864 9.875 11.6459 10.0989 11.2474 10.4974C10.8489 10.8959 10.625 11.4364 10.625 12C10.625 12.5636 10.8489 13.1041 11.2474 13.5026C11.6459 13.9011 12.1864 14.125 12.75 14.125C13.3136 14.125 13.8541 13.9011 14.2526 13.5026C14.6511 13.1041 14.875 12.5636 14.875 12C14.875 11.4364 14.6511 10.8959 14.2526 10.4974C13.8541 10.0989 13.3136 9.875 12.75 9.875ZM10.75 15.875C10.7168 15.875 10.6851 15.8882 10.6616 15.9116C10.6382 15.9351 10.625 15.9668 10.625 16V29C10.625 29.069 10.681 29.125 10.75 29.125H14.75C14.7832 29.125 14.8149 29.1118 14.8384 29.0884C14.8618 29.0649 14.875 29.0332 14.875 29V16C14.875 15.9668 14.8618 15.9351 14.8384 15.9116C14.8149 15.8882 14.7832 15.875 14.75 15.875H10.75ZM17.25 15.875C17.2168 15.875 17.1851 15.8882 17.1616 15.9116C17.1382 15.9351 17.125 15.9668 17.125 16V29C17.125 29.069 17.181 29.125 17.25 29.125H21.25C21.2832 29.125 21.3149 29.1118 21.3384 29.0884C21.3618 29.0649 21.375 29.0332 21.375 29V22C21.375 21.5027 21.5725 21.0258 21.9242 20.6742C22.2758 20.3225 22.7527 20.125 23.25 20.125C23.7473 20.125 24.2242 20.3225 24.5758 20.6742C24.9275 21.0258 25.125 21.5027 25.125 22V29C25.125 29.069 25.181 29.125 25.25 29.125H29.25C29.2832 29.125 29.3149 29.1118 29.3384 29.0884C29.3618 29.0649 29.375 29.0332 29.375 29V20.38C29.375 17.953 27.265 16.055 24.85 16.274C24.1029 16.3425 23.371 16.5274 22.681 16.822L21.375 17.382V16C21.375 15.9668 21.3618 15.9351 21.3384 15.9116C21.3149 15.8882 21.2832 15.875 21.25 15.875H17.25Z" fill="#141414"/>
</svg>
