<svg width="40" height="40" viewBox="0 0 40 40" fill="none" xmlns="http://www.w3.org/2000/svg">
<path fill-rule="evenodd" clip-rule="evenodd" d="M30.0001 6.66664L36.6667 13.3334V33.3334H3.33344V14.2276L6.66672 18.1164V30H33.3334V14.1666L29.1667 10H25.496L22.8132 6.66664H30.0001ZM30.0001 25V27.5H10.0001V25H30.0001ZM20.0001 5L24.1667 10.8334L13.3334 23.3334L2.50008 10.8334L6.66672 5H20.0001ZM18.3857 20H30.0001V22.5H18.3334V20.0609L18.3857 20ZM15.1308 11.6666H11.5345L13.3334 18.8134L15.1308 11.6666ZM8.9543 11.6666H6.39539L10.9555 17.9205L8.9543 11.6666ZM20.2698 11.6666H17.7125L15.7116 17.9192L20.2698 11.6666ZM22.6714 14.9999L30.0001 15V17.5H20.5286L22.6714 14.9999ZM10.7199 7.5H7.95172L6.16633 10H9.05328L10.7199 7.5ZM13.7907 7.5H12.8731L11.8099 10H14.8548L13.7907 7.5ZM18.7134 7.5H15.9468L17.6135 10H20.4987L18.7134 7.5Z" fill="white"/>
</svg>
