<svg width="41" height="40" viewBox="0 0 41 40" fill="none" xmlns="http://www.w3.org/2000/svg">
<path d="M20.5001 20.8333C18.953 20.8333 17.4693 21.4478 16.3753 22.5418C15.2813 23.6358 14.6667 25.1195 14.6667 26.6666C14.6667 28.2137 15.2813 29.6974 16.3753 30.7914C17.4693 31.8853 18.953 32.4999 20.5001 32.4999C22.0472 32.4999 23.5309 31.8853 24.6249 30.7914C25.7188 29.6974 26.3334 28.2137 26.3334 26.6666C26.3334 25.1195 25.7188 23.6358 24.6249 22.5418C23.5309 21.4478 22.0472 20.8333 20.5001 20.8333ZM18.0001 26.6666C18.0001 26.0035 18.2635 25.3677 18.7323 24.8988C19.2012 24.43 19.837 24.1666 20.5001 24.1666C21.1631 24.1666 21.799 24.43 22.2678 24.8988C22.7367 25.3677 23.0001 26.0035 23.0001 26.6666C23.0001 27.3296 22.7367 27.9655 22.2678 28.4344C21.799 28.9032 21.1631 29.1666 20.5001 29.1666C19.837 29.1666 19.2012 28.9032 18.7323 28.4344C18.2635 27.9655 18.0001 27.3296 18.0001 26.6666Z" fill="white"/>
<path d="M29.7101 8.52672L24.4117 1.09839L4.93006 16.6617L3.85006 16.6501V16.6667H3.00006V36.6667H38.0001V16.6667H36.3967L33.2067 7.33506L29.7101 8.52672ZM32.8751 16.6667H16.1617L28.6101 12.4234L31.1467 11.6117L32.8751 16.6667ZM26.4167 9.65005L13.5667 14.0301L23.7434 5.90006L26.4167 9.65005ZM6.33339 30.2817V23.0484C7.03702 22.8001 7.67614 22.3974 8.2039 21.8699C8.73167 21.3424 9.13468 20.7035 9.38339 20.0001H31.6167C31.8652 20.7039 32.2682 21.3431 32.7959 21.8709C33.3237 22.3986 33.9629 22.8015 34.6667 23.0501V30.2834C33.9629 30.5319 33.3237 30.9348 32.7959 31.4626C32.2682 31.9904 31.8652 32.6296 31.6167 33.3334H9.38673C9.13703 32.6295 8.73334 31.9903 8.20509 31.4623C7.67685 30.9344 7.0374 30.531 6.33339 30.2817Z" fill="white"/>
</svg>
