<svg width="32" height="32" viewBox="0 0 32 32" fill="none" xmlns="http://www.w3.org/2000/svg">
<path d="M9.88965 19.5595L20.2395 15.3584L17.5532 21.7155C17.3385 22.2236 17.5792 22.8166 18.0873 23.0312C18.2079 23.0823 18.3374 23.1092 18.4683 23.1102C18.5993 23.1112 18.7292 23.0863 18.8505 23.0371C18.9719 22.9878 19.0823 22.9151 19.1755 22.8231C19.2688 22.7311 19.3429 22.6216 19.3938 22.5009L23.0213 13.9162C23.0724 13.7957 23.0993 13.6662 23.1003 13.5352C23.1013 13.4042 23.0764 13.2744 23.0272 13.153C22.9779 13.0317 22.9052 12.9212 22.8132 12.828C22.7212 12.7348 22.6117 12.6606 22.491 12.6098L13.9063 8.98219C13.7857 8.93123 13.6563 8.90452 13.5253 8.90359C13.3944 8.90266 13.2646 8.92753 13.1433 8.97677C13.0219 9.02602 12.9115 9.09867 12.8183 9.1906C12.725 9.28252 12.6508 9.3919 12.5999 9.51251C12.5489 9.63311 12.5222 9.76257 12.5213 9.8935C12.5203 10.0244 12.5452 10.1543 12.5944 10.2756C12.6437 10.3969 12.7163 10.5073 12.8083 10.6006C12.9002 10.6938 13.0096 10.768 13.1302 10.819L19.4873 13.5053L9.13743 17.7064C8.62781 17.9133 8.3801 18.4995 8.58696 19.0091C8.79382 19.5187 9.38003 19.7664 9.88965 19.5595Z" fill="white"/>
</svg>
